<?xml version="1.0" standalone="no"?>
<!DOCTYPE svg PUBLIC "-//W3C//DTD SVG 20010904//EN"
 "http://www.w3.org/TR/2001/REC-SVG-20010904/DTD/svg10.dtd">
<svg version="1.0" xmlns="http://www.w3.org/2000/svg"
 width="2134.000000pt" height="2134.000000pt" viewBox="0 0 2134.000000 2134.000000"
 preserveAspectRatio="xMidYMid meet">
<metadata>
Created by potrace 1.14, written by Peter Selinger 2001-2017
</metadata>
<g transform="translate(0.000000,2134.000000) scale(0.100000,-0.100000)"
fill="#000000" stroke="none">
<path d="M8917 21335 c-1 -2 -50 -5 -109 -9 -59 -3 -113 -8 -120 -11 -7 -2
-36 -6 -64 -9 -104 -11 -356 -68 -419 -95 -11 -4 -58 -23 -105 -41 -108 -41
-268 -124 -368 -191 -446 -300 -763 -764 -977 -1429 -39 -124 -98 -331 -110
-388 -2 -9 -8 -37 -14 -62 -14 -54 -19 -78 -25 -105 -2 -11 -9 -40 -16 -65 -7
-25 -14 -56 -16 -70 -3 -14 -7 -32 -9 -40 -2 -8 -7 -28 -10 -45 -2 -16 -7 -39
-9 -50 -25 -121 -35 -176 -40 -210 -6 -38 -14 -86 -22 -130 -2 -11 -11 -63
-19 -115 -29 -194 -31 -207 -40 -285 -3 -27 -8 -61 -10 -75 -5 -27 -11 -76
-20 -160 -4 -30 -8 -66 -10 -80 -2 -14 -6 -54 -10 -90 -3 -36 -8 -81 -10 -100
-2 -19 -7 -62 -10 -95 -3 -33 -7 -82 -10 -110 -10 -108 -20 -230 -30 -395 -26
-401 -26 -1130 -1 -1265 2 -11 7 -51 11 -88 3 -37 8 -76 10 -85 1 -9 6 -42 10
-72 4 -30 8 -62 10 -70 5 -31 18 -116 20 -140 2 -14 6 -43 10 -65 3 -22 8 -53
11 -70 3 -16 7 -41 9 -55 2 -14 16 -101 30 -195 14 -93 28 -183 31 -200 3 -16
7 -42 9 -58 4 -24 40 -262 50 -327 2 -14 9 -61 15 -105 6 -44 14 -93 16 -110
11 -70 13 -83 19 -134 4 -30 8 -61 10 -70 1 -9 6 -43 10 -76 4 -33 9 -69 11
-80 5 -37 25 -190 39 -307 3 -24 7 -59 10 -78 2 -19 7 -57 10 -85 3 -27 7 -70
10 -95 5 -45 11 -98 20 -187 3 -27 7 -70 10 -98 3 -27 7 -77 10 -111 2 -33 7
-83 9 -110 3 -27 8 -94 11 -149 4 -55 8 -116 10 -135 8 -79 18 -398 18 -590 0
-212 -7 -376 -24 -540 -14 -134 -16 -149 -50 -335 -11 -60 -23 -123 -25 -140
-3 -16 -28 -142 -56 -280 -27 -137 -52 -261 -54 -275 -3 -14 -11 -53 -19 -86
-8 -34 -16 -73 -19 -85 -2 -13 -22 -109 -44 -214 -23 -104 -43 -201 -46 -215
-3 -14 -7 -34 -9 -45 -4 -17 -71 -325 -83 -380 -2 -11 -6 -31 -9 -45 -3 -14
-18 -88 -35 -165 -27 -122 -112 -525 -124 -588 -3 -12 -11 -54 -20 -92 -8 -39
-17 -82 -20 -95 -9 -44 -46 -234 -51 -260 -2 -14 -18 -90 -34 -170 -16 -80
-32 -163 -35 -185 -4 -23 -9 -52 -11 -65 -13 -67 -45 -239 -50 -270 -3 -19
-12 -71 -20 -115 -8 -44 -21 -125 -30 -180 -8 -55 -22 -143 -30 -195 -7 -52
-17 -117 -20 -145 -4 -27 -10 -77 -15 -110 -5 -33 -12 -87 -15 -120 -4 -33 -8
-71 -10 -85 -2 -14 -6 -52 -10 -85 -3 -33 -8 -82 -11 -110 -10 -83 -11 -430
-3 -497 25 -190 27 -198 61 -338 72 -298 213 -590 407 -845 144 -189 359 -391
571 -536 264 -181 634 -336 920 -385 14 -3 32 -7 40 -9 8 -3 35 -7 59 -10 24
-3 47 -7 50 -9 15 -10 200 -20 336 -20 527 2 1023 232 1476 683 253 254 428
476 603 771 31 52 61 102 66 110 28 43 96 184 135 279 87 212 213 621 339
1101 17 62 189 759 210 850 28 116 125 532 131 560 2 8 27 114 56 235 29 121
52 240 52 265 -2 50 -67 313 -114 460 -81 253 -155 437 -319 800 -56 124 -120
270 -142 325 -22 55 -45 111 -51 125 -5 14 -12 30 -13 35 -2 6 -31 88 -63 183
-98 287 -174 614 -196 847 -23 250 -23 633 0 776 2 13 6 51 10 84 7 71 13 111
25 185 5 30 12 69 14 85 23 143 24 144 86 167 68 24 253 88 257 88 4 0 -6 -68
-17 -110 -5 -19 -11 -53 -14 -75 -7 -65 -27 -218 -31 -250 -23 -154 -23 -648
-1 -762 3 -12 7 -48 11 -80 3 -32 8 -65 10 -73 2 -8 6 -32 10 -53 15 -109 78
-349 135 -517 36 -110 46 -136 76 -205 7 -16 21 -52 32 -80 19 -47 52 -123
107 -240 13 -27 41 -93 63 -145 37 -87 146 -343 177 -415 20 -46 80 -202 105
-275 13 -36 26 -69 30 -73 6 -7 16 30 34 118 3 11 14 58 25 105 11 47 22 97
25 110 2 14 16 74 31 134 15 60 28 116 30 125 2 9 9 39 15 66 6 28 13 57 15
65 2 8 11 47 20 85 9 39 18 78 20 88 2 10 18 75 35 145 17 70 33 134 35 142
20 90 189 774 230 930 177 668 244 889 357 1175 121 305 222 578 263 715 1 3
4 12 8 20 3 8 10 31 15 50 10 33 82 272 102 335 36 115 166 672 185 795 3 19
10 55 15 80 18 83 56 343 74 500 3 25 8 65 11 90 14 129 16 153 30 355 2 28 4
69 4 92 l1 41 38 -9 c112 -30 360 -174 517 -302 228 -184 543 -503 708 -717
44 -57 151 -205 182 -252 21 -32 39 -58 42 -58 4 0 -55 107 -79 142 -10 14
-18 28 -18 31 0 5 -17 32 -139 217 -73 110 -227 308 -315 404 -108 118 -231
237 -316 306 -30 25 -57 47 -60 50 -63 63 -379 250 -424 250 -8 0 -17 4 -20 8
-3 4 -28 14 -55 22 -43 11 -51 17 -51 37 0 13 1 23 3 23 2 0 42 -13 89 -29
167 -56 342 -152 515 -283 100 -75 98 -73 162 -133 23 -22 39 -33 36 -25 -6
12 -48 51 -178 165 -93 81 -275 198 -407 262 -63 30 -122 56 -131 58 -9 2 -46
13 -84 24 -78 24 -99 29 -180 37 -33 3 -78 10 -100 15 -70 15 -262 4 -340 -21
-146 -45 -320 -146 -465 -271 -96 -82 -134 -122 -281 -289 -51 -59 -187 -245
-234 -321 -13 -21 -43 -67 -65 -100 -10 -14 -31 -49 -46 -78 -16 -28 -34 -60
-39 -69 -18 -31 -153 -276 -174 -317 -11 -22 -20 -37 -21 -34 0 10 67 154 139
299 119 236 162 311 286 500 304 463 615 719 957 790 84 18 231 20 298 5 14
-3 45 -10 70 -15 25 -5 78 -20 118 -34 l72 -25 0 27 c0 25 -6 29 -87 55 -49
15 -100 30 -114 32 -236 42 -420 15 -629 -90 -224 -113 -478 -363 -687 -675
-260 -390 -550 -1018 -687 -1488 -31 -104 -97 -366 -110 -432 -24 -127 -131
-559 -141 -568 -3 -3 -143 -41 -153 -42 -2 0 -1 3 1 8 3 4 8 23 11 42 3 19 8
44 10 55 3 11 14 65 26 120 52 250 133 564 181 705 22 63 41 122 43 130 8 28
103 274 159 410 315 765 640 1274 1012 1586 181 151 380 251 575 288 75 14
274 15 335 2 48 -11 167 -46 208 -62 20 -8 40 -14 44 -14 5 0 -4 364 -12 455
-2 22 -6 81 -10 132 -3 50 -7 100 -9 110 -2 10 -7 49 -11 87 -4 38 -8 79 -10
90 -2 12 -6 43 -10 69 -4 27 -8 56 -10 65 -1 10 -6 44 -10 77 -3 32 -8 62 -10
65 -2 3 -6 21 -9 40 -12 70 -16 96 -26 140 -5 25 -12 56 -14 70 -10 63 -82
359 -118 485 -22 77 -41 147 -43 155 -3 13 -31 101 -100 315 -140 430 -386
953 -648 1380 -31 50 -202 303 -221 326 -11 14 -28 36 -36 49 -8 12 -19 28
-25 34 -5 6 -22 27 -37 48 -15 20 -33 42 -40 50 -7 7 -31 36 -53 63 -208 261
-537 567 -826 767 -299 207 -670 380 -975 453 -64 15 -214 46 -244 50 -19 3
-53 7 -75 10 -71 9 -118 14 -217 21 -94 6 -346 12 -351 9z m2204 -7258 c-10
-9 -11 -8 -5 6 3 10 9 15 12 12 3 -3 0 -11 -7 -18z"/>
<path d="M13896 15027 c3 -10 9 -15 12 -12 3 3 0 11 -7 18 -10 9 -11 8 -5 -6z"/>
<path d="M14040 14883 c8 -12 53 -72 100 -135 74 -98 163 -226 195 -280 152
-256 229 -403 305 -583 23 -55 46 -109 51 -120 21 -50 55 -140 95 -259 25 -70
51 -141 59 -157 57 -109 202 -514 220 -612 4 -21 9 -36 12 -33 3 2 -7 64 -21
138 -58 295 -166 638 -289 913 -31 69 -159 326 -176 355 -6 8 -33 56 -62 105
-66 112 -172 272 -260 391 -74 101 -70 96 -165 209 -73 88 -85 101 -64 68z"/>
<path d="M15170 12630 c0 -3 9 -37 20 -76 10 -39 22 -84 24 -100 3 -16 8 -40
11 -54 13 -66 27 -137 30 -160 4 -26 22 -135 29 -180 3 -14 7 -47 10 -75 4
-27 8 -61 11 -75 2 -14 7 -52 10 -85 3 -33 8 -73 10 -90 7 -48 25 -244 30
-325 19 -298 25 -789 11 -1015 -12 -198 -21 -322 -31 -395 -3 -19 -7 -55 -10
-80 -11 -83 -16 -115 -20 -140 -3 -14 -7 -41 -10 -60 -7 -42 -24 -137 -29
-165 -21 -101 -89 -409 -98 -440 -5 -22 -12 -51 -14 -65 -3 -14 -7 -33 -10
-42 -3 -9 -6 -25 -8 -35 -2 -10 -13 -57 -25 -105 -11 -48 -23 -98 -25 -110
-26 -137 -143 -495 -225 -687 -32 -75 -90 -215 -130 -311 -40 -96 -76 -184
-81 -195 -14 -31 -136 -344 -196 -505 -30 -80 -58 -152 -61 -160 -3 -8 -7 -17
-8 -20 -1 -3 -5 -12 -8 -20 -21 -47 -200 -550 -270 -760 -119 -352 -226 -726
-252 -884 -3 -17 -10 -44 -15 -61 -5 -16 -11 -46 -14 -65 -4 -19 -14 -72 -25
-118 -25 -114 -9 -90 22 33 73 289 121 452 204 690 42 122 164 446 183 490 5
11 25 61 45 110 20 50 40 99 44 110 5 11 23 54 39 95 17 41 39 93 48 115 10
22 18 42 19 45 3 9 25 60 45 104 11 25 20 47 20 50 0 2 16 39 35 80 19 42 35
78 35 81 0 2 11 28 24 57 13 29 43 96 66 148 46 106 70 159 107 240 53 116 81
177 108 235 15 33 63 134 107 225 93 195 131 291 197 512 27 89 72 231 101
313 28 83 53 155 54 160 1 6 17 57 34 115 18 58 37 121 42 140 5 19 15 60 24
90 15 56 71 325 81 396 4 21 8 50 11 64 2 14 6 43 9 65 3 22 10 74 15 115 29
228 40 417 41 675 0 212 -6 345 -27 585 -18 209 -86 607 -140 825 -14 55 -27
109 -30 120 -27 127 -191 615 -194 575z"/>
<path d="M11526 8947 c-10 -39 -32 -110 -48 -157 -16 -47 -31 -92 -33 -100 -2
-8 -26 -78 -53 -155 -47 -134 -49 -143 -37 -180 35 -106 101 -384 120 -505 3
-19 8 -46 10 -60 3 -14 7 -45 10 -70 3 -25 10 -76 16 -115 5 -38 12 -104 15
-145 3 -41 7 -93 9 -115 23 -231 23 -897 0 -1120 -12 -116 -17 -165 -21 -215
-2 -30 -7 -66 -9 -80 -3 -14 -7 -50 -10 -80 -4 -30 -8 -62 -10 -70 -2 -8 -7
-37 -11 -65 -3 -27 -8 -59 -11 -70 -2 -11 -6 -33 -8 -50 -3 -16 -7 -41 -10
-55 -2 -14 -7 -41 -10 -60 -3 -19 -8 -42 -10 -50 -2 -8 -7 -33 -10 -55 -4 -32
-92 -470 -110 -550 -8 -34 -15 -69 -20 -93 -2 -13 -6 -31 -9 -40 -3 -9 -8 -30
-11 -47 -2 -16 -7 -39 -10 -50 -2 -11 -12 -51 -21 -90 -8 -38 -17 -77 -19 -85
-27 -116 -130 -602 -141 -660 -2 -14 -9 -45 -14 -70 -11 -52 -14 -66 -40 -215
-11 -60 -22 -121 -25 -135 -2 -13 -7 -42 -10 -65 -3 -22 -8 -47 -10 -55 -3 -8
-7 -37 -10 -65 -2 -27 -6 -59 -9 -70 -2 -11 -7 -49 -11 -85 -4 -36 -9 -76 -11
-90 -24 -205 -24 -693 0 -827 2 -10 7 -45 10 -78 25 -213 104 -520 184 -710
13 -33 31 -75 38 -92 8 -18 13 -34 12 -36 -2 -2 2 -10 8 -18 6 -8 29 -45 49
-84 35 -64 112 -190 135 -218 61 -77 129 -154 171 -194 28 -26 59 -55 68 -64
37 -35 138 -94 201 -115 114 -40 277 -21 413 47 178 90 357 280 514 544 92
154 202 376 278 560 20 50 43 104 50 120 23 52 162 437 188 520 53 170 53 166
131 500 14 61 28 125 31 144 3 19 7 37 9 40 2 3 7 24 10 46 4 22 8 47 11 55
13 42 171 882 200 1060 3 19 17 99 31 178 14 79 23 146 20 149 -3 4 -6 -2 -6
-11 0 -10 -9 -55 -20 -100 -10 -44 -21 -94 -24 -111 -5 -26 -41 -203 -51 -245
-2 -8 -17 -80 -35 -160 -17 -80 -35 -163 -41 -185 -5 -22 -12 -50 -14 -63 -2
-13 -6 -31 -9 -40 -3 -9 -7 -28 -10 -42 -3 -14 -7 -34 -10 -45 -2 -11 -12 -51
-21 -90 -9 -38 -19 -81 -21 -95 -3 -14 -10 -43 -16 -65 -5 -22 -11 -47 -13
-55 -2 -8 -11 -44 -20 -80 -9 -36 -18 -72 -20 -81 -2 -9 -22 -86 -45 -170 -23
-85 -43 -158 -44 -164 -36 -149 -153 -477 -243 -685 -8 -19 -19 -44 -23 -55
-4 -11 -22 -50 -39 -87 -17 -37 -31 -70 -31 -73 0 -13 -165 -342 -202 -403
-21 -34 -38 -65 -38 -68 0 -3 -34 -56 -75 -118 -194 -294 -361 -446 -548 -501
-76 -22 -156 -21 -209 3 -42 18 -198 137 -198 150 0 4 -16 23 -34 43 -48 50
-150 207 -202 311 -100 200 -190 497 -219 723 -4 28 -8 61 -11 75 -26 155 -26
628 1 828 6 49 15 105 19 129 3 12 8 43 12 70 3 26 8 55 9 63 6 31 37 195 39
205 3 9 15 73 21 105 5 26 41 182 115 500 16 69 31 136 34 150 3 14 10 45 17
70 6 25 12 52 14 60 10 45 69 292 95 400 30 124 87 370 95 406 4 20 23 105 32
139 2 11 6 33 9 48 2 15 10 54 18 85 8 31 17 74 20 94 3 21 10 57 15 80 6 24
12 57 15 73 3 17 8 39 10 50 2 11 7 40 11 65 4 25 9 52 10 60 1 8 6 35 10 60
4 25 9 54 11 65 2 11 7 40 10 65 3 25 8 52 9 61 2 9 8 61 15 115 6 55 13 110
15 124 2 14 7 61 10 105 4 44 9 94 11 110 21 171 20 1001 -1 1145 -2 14 -6 63
-10 110 -4 47 -8 96 -10 110 -2 14 -7 47 -10 74 -6 57 -32 229 -40 266 -3 14
-8 41 -11 60 -4 19 -20 91 -36 160 -16 69 -31 132 -33 140 -27 118 -186 593
-204 612 -3 4 -15 -25 -25 -65z"/>
<path d="M15049 7953 c-12 -27 -36 -86 -56 -133 -19 -47 -40 -98 -48 -115 -40
-92 -198 -499 -301 -775 -36 -96 -79 -211 -96 -255 -17 -44 -48 -132 -69 -195
-22 -63 -44 -124 -49 -135 -52 -116 -287 -867 -314 -1006 -2 -13 -14 -64 -25
-114 -30 -127 -50 -216 -55 -245 -3 -14 -14 -70 -26 -125 -12 -55 -24 -111
-26 -125 -3 -14 -16 -77 -29 -140 -13 -63 -26 -126 -29 -140 -18 -100 -124
-619 -157 -769 -21 -101 -41 -194 -43 -207 -3 -13 -7 -32 -10 -42 -3 -9 -7
-28 -10 -42 -12 -72 -100 -454 -127 -552 -10 -38 -16 -68 -13 -68 3 0 0 -8 -5
-17 -5 -10 -11 -31 -14 -48 -31 -173 -206 -692 -357 -1060 -361 -875 -747
-1302 -1203 -1331 -137 -8 -241 20 -367 101 -292 187 -545 577 -694 1066 -19
63 -37 128 -40 144 -3 17 -15 73 -26 125 -10 52 -24 131 -30 175 -6 44 -12 94
-15 110 -30 218 -26 673 10 940 2 17 7 53 10 80 7 50 41 272 49 311 2 12 7 37
10 55 7 43 13 71 37 194 11 55 23 111 25 125 3 14 9 41 14 60 5 19 12 51 15
70 6 37 33 160 65 295 10 44 21 92 24 108 3 15 7 35 10 45 3 9 7 28 10 42 2
14 16 72 30 130 14 58 28 120 31 139 3 19 8 37 10 41 2 4 6 20 9 36 3 16 23
108 45 204 39 172 79 361 87 410 2 14 9 45 14 70 10 49 36 193 45 250 3 19 11
64 17 100 6 36 12 74 13 85 2 22 14 105 21 145 2 14 6 48 9 75 3 28 7 66 10
85 2 19 7 73 11 120 3 47 8 108 10 135 8 90 12 725 5 729 -4 3 -9 -41 -10 -97
-5 -186 -18 -375 -36 -557 -3 -25 -7 -70 -10 -100 -3 -30 -7 -62 -9 -70 -3 -8
-8 -42 -11 -75 -5 -49 -30 -200 -50 -300 -8 -44 -34 -171 -39 -190 -2 -11 -11
-51 -20 -90 -44 -202 -167 -672 -301 -1145 -24 -85 -58 -207 -75 -270 -17 -63
-39 -140 -47 -170 -9 -30 -17 -59 -19 -65 -1 -5 -8 -30 -15 -55 -7 -25 -13
-47 -14 -50 0 -3 -5 -23 -10 -45 -5 -22 -9 -42 -10 -45 -11 -39 -28 -98 -30
-110 -2 -8 -18 -73 -35 -145 -67 -286 -111 -511 -135 -700 -4 -27 -8 -61 -10
-75 -15 -103 -20 -226 -20 -495 0 -270 4 -365 20 -467 2 -13 7 -45 11 -73 4
-27 8 -54 10 -60 1 -5 5 -30 9 -55 3 -25 12 -70 20 -100 8 -30 16 -68 19 -85
10 -55 73 -258 115 -370 181 -478 583 -918 933 -1019 93 -28 98 -28 243 -31
171 -4 282 16 424 77 196 83 439 273 571 446 14 18 33 43 43 55 22 26 197 284
197 290 0 2 25 49 56 103 216 380 513 1141 600 1534 9 43 6 29 44 185 35 144
37 151 50 215 5 25 18 83 29 130 10 47 22 99 24 115 3 17 10 53 16 80 6 28 13
61 15 75 3 14 7 34 9 45 12 52 48 233 72 355 14 74 28 146 30 160 3 14 8 39
11 55 3 17 14 75 24 130 11 55 22 115 25 133 3 18 12 63 19 100 8 37 17 84 20
104 3 21 10 57 15 80 5 24 12 63 15 88 3 25 13 101 21 170 9 69 18 143 21 165
4 47 13 109 19 145 2 14 7 50 10 80 3 30 8 62 10 70 2 8 7 35 10 60 3 25 12
81 20 125 8 44 17 96 20 115 3 19 19 92 35 162 16 70 31 137 34 150 6 35 75
309 102 408 12 47 25 96 28 110 20 99 219 788 338 1170 43 140 81 262 83 270
2 8 21 66 43 128 41 118 45 144 11 65z"/>
<path d="M11453 7155 c-3 -9 -3 -18 -1 -21 3 -3 8 4 11 16 6 23 -1 27 -10 5z"/>
<path d="M13771 4834 c0 -11 3 -14 6 -6 3 7 2 16 -1 19 -3 4 -6 -2 -5 -13z"/>
<path d="M13702 4470 c0 -14 2 -19 5 -12 2 6 2 18 0 25 -3 6 -5 1 -5 -13z"/>
</g>
</svg>
