<svg fill="none" xmlns="http://www.w3.org/2000/svg" viewBox="0 0 25 20"><path d="M7.937 19.786c9.055 0 14.008-7.503 14.008-14.008 0-.211-.004-.427-.014-.638a10 10 0 002.456-2.549c-.897.4-1.85.66-2.826.774A4.951 4.951 0 0023.726.642a9.898 9.898 0 01-3.125 1.194 4.93 4.93 0 00-8.394 4.49A13.984 13.984 0 012.06 1.186a4.93 4.93 0 001.524 6.57 4.93 4.93 0 01-2.231-.614v.06a4.921 4.921 0 003.95 4.829 4.893 4.893 0 01-2.221.084 4.933 4.933 0 004.598 3.422 9.876 9.876 0 01-7.293 2.037 13.968 13.968 0 007.55 2.212z" fill="#fff"/></svg>