<svg fill="none" xmlns="http://www.w3.org/2000/svg" viewBox="0 0 25 24"><path d="M12.782 2.161c3.208 0 3.587.014 4.85.07 1.172.052 1.806.25 2.227.413.559.216.962.478 1.38.896.421.422.68.82.895 1.378.164.422.361 1.06.413 2.227.057 1.266.07 1.646.07 4.848 0 3.207-.013 3.587-.07 4.848-.052 1.172-.249 1.805-.413 2.227a3.721 3.721 0 01-.895 1.378c-.423.422-.821.68-1.38.896-.421.164-1.06.36-2.227.412-1.266.056-1.647.07-4.85.07-3.208 0-3.588-.014-4.85-.07-1.172-.051-1.805-.248-2.228-.412a3.711 3.711 0 01-1.378-.896 3.687 3.687 0 01-.896-1.378c-.165-.422-.362-1.06-.413-2.227-.056-1.266-.07-1.646-.07-4.848 0-3.207.014-3.587.07-4.848.051-1.172.248-1.805.413-2.227a3.71 3.71 0 01.896-1.378c.421-.422.82-.68 1.378-.896.423-.164 1.06-.36 2.228-.412 1.262-.057 1.642-.07 4.85-.07zm0-2.161c-3.26 0-3.668.014-4.949.07-1.275.057-2.152.263-2.912.558a5.86 5.86 0 00-2.13 1.388A5.89 5.89 0 001.404 4.14C1.108 4.904.902 5.776.845 7.05c-.056 1.285-.07 1.693-.07 4.951 0 3.259.014 3.667.07 4.947.057 1.275.263 2.152.558 2.911.31.793.718 1.463 1.389 2.129a5.87 5.87 0 002.125 1.383c.764.295 1.636.501 2.912.558 1.28.056 1.688.07 4.948.07 3.26 0 3.668-.014 4.949-.07 1.276-.057 2.152-.263 2.912-.558a5.878 5.878 0 002.125-1.383 5.877 5.877 0 001.384-2.124c.295-.764.5-1.636.558-2.912.056-1.28.07-1.688.07-4.946s-.014-3.666-.07-4.946c-.057-1.275-.263-2.152-.558-2.912a5.623 5.623 0 00-1.375-2.133A5.86 5.86 0 0020.647.633C19.883.338 19.011.13 17.734.075 16.45.015 16.042 0 12.782 0z" fill="#fff"/><path d="M12.781 5.838a6.168 6.168 0 00-6.168 6.165 6.168 6.168 0 0012.336 0 6.168 6.168 0 00-6.168-6.165zm0 10.164a4 4 0 110-8 4 4 0 010 8zM20.633 5.594a1.44 1.44 0 11-2.88-.001 1.44 1.44 0 012.88 0z" fill="#fff"/></svg>