<svg fill="none" xmlns="http://www.w3.org/2000/svg" viewBox="0 0 22 15"><path d="M13.375.53c2.19 2.448 4.921 4.791 8.194 7.028-3.25 2.166-5.98 4.51-8.194 7.029l-1.625-.071.036-1.625c.777-.447 2.083-1.248 3.92-2.402 2.025-1.247 3.497-2.119 4.415-2.613-4.097.118-7.558.247-10.384.388-2.802.142-5.322.365-7.559.671L.766 7.593l1.412-1.342c2.214.26 4.674.46 7.382.6 2.708.118 6.205.236 10.49.354-.989-.518-2.448-1.401-4.38-2.65-.54-.329-1.13-.682-1.765-1.059-.636-.4-1.342-.836-2.12-1.307L11.75.565l1.625-.036z" fill="#000"/></svg>