<svg fill="none" xmlns="http://www.w3.org/2000/svg" viewBox="0 0 25 25"><path d="M24.075 17.734c-.165-.46-.484-.71-.845-.909-.068-.037-.129-.075-.184-.1l-.33-.168c-1.129-.61-2.011-1.37-2.618-2.278a5.193 5.193 0 01-.447-.81c-.055-.149-.05-.236-.012-.317a.503.503 0 01.146-.156c.196-.13.393-.261.528-.348.24-.162.435-.287.557-.374.46-.33.784-.678.987-1.07.288-.549.325-1.19.104-1.769-.307-.821-1.066-1.326-1.991-1.326-.196 0-.386.019-.583.063-.05.012-.104.024-.153.037.006-.56-.007-1.152-.055-1.737-.172-2.048-.882-3.12-1.619-3.972a6.496 6.496 0 00-1.641-1.345C14.803.508 13.534.178 12.155.178c-1.378 0-2.64.33-3.757.977-.619.355-1.17.81-1.642 1.345-.736.853-1.44 1.93-1.618 3.972a18.89 18.89 0 00-.055 1.737 2.596 2.596 0 00-.73-.1c-.925 0-1.685.51-1.992 1.326-.22.58-.184 1.22.105 1.768.202.393.527.741.987 1.071.122.087.312.212.557.374.129.087.319.212.509.336.068.043.123.1.165.168.037.081.043.168-.018.33-.123.274-.27.542-.442.79-.594.885-1.451 1.638-2.543 2.242-.575.311-1.177.517-1.434 1.22-.19.53-.067 1.127.417 1.637.178.187.387.35.613.474a6.74 6.74 0 001.502.61c.11.03.207.075.3.137.177.155.153.392.386.74.117.181.27.337.441.461.496.349 1.054.368 1.643.393.532.018 1.134.043 1.826.273.288.094.582.28.926.498.826.517 1.954 1.22 3.849 1.22 1.893 0 3.027-.709 3.86-1.226.344-.211.638-.398.914-.492.686-.23 1.293-.255 1.826-.273.588-.025 1.146-.044 1.643-.393.207-.15.38-.336.502-.56.172-.293.165-.498.324-.641a.83.83 0 01.283-.131 6.74 6.74 0 001.52-.616c.239-.131.459-.305.643-.51l.006-.007c.478-.498.594-1.083.404-1.594zm-1.679.915c-1.023.573-1.71.51-2.237.86-.453.292-.184.927-.508 1.157-.405.28-1.594-.018-3.126.498-1.268.424-2.072 1.65-4.35 1.65-2.281 0-3.065-1.22-4.353-1.65-1.532-.516-2.72-.211-3.125-.498-.325-.23-.061-.865-.509-1.157-.533-.35-1.213-.287-2.237-.86-.655-.367-.281-.591-.067-.697 3.713-1.824 4.308-4.644 4.332-4.856.032-.255.068-.454-.207-.71-.264-.249-1.441-.99-1.772-1.22-.54-.386-.778-.766-.6-1.239.122-.324.422-.448.735-.448.098 0 .196.012.294.031.595.13 1.17.43 1.502.517.042.012.08.018.122.018.178 0 .24-.093.227-.298-.037-.66-.129-1.943-.024-3.144.14-1.65.661-2.472 1.286-3.194.301-.349 1.705-1.855 4.395-1.855 2.69 0 4.093 1.5 4.394 1.849.625.722 1.146 1.544 1.287 3.193.104 1.202.012 2.484-.03 3.144-.013.218.048.3.226.3.043 0 .08-.007.123-.02.331-.08.907-.385 1.501-.516.099-.025.196-.031.294-.031.313 0 .614.124.736.448.178.473-.061.853-.6 1.239-.325.23-1.502.971-1.772 1.22-.276.255-.24.455-.209.71.025.211.62 3.032 4.333 4.856.22.106.589.336-.06.703z" fill="#fff"/></svg>