<svg width="412" height="506" viewBox="0 0 412 506" fill="none" xmlns="http://www.w3.org/2000/svg">
<path d="M411.4 415C409.8 445.8 402 468.6 388 483.4C374.4 497.8 356.2 505 333.4 505C312.2 505 289.6 495.8 265.6 477.4C237.6 495.8 204.2 505 165.4 505C135.8 505 108.4 500.2 83.2 490.6C58.4 481 38.4 466.4 23.2 446.8C8.4 426.8 1 402.2 1 373C1 344.6 8.6 320.2 23.8 299.8C39.4 279.4 60.4 260.2 86.8 242.2C57.2 188.2 42.4 142.2 42.4 104.2C42.4 74.2 51.8 49.6 70.6 30.4C89.8 10.8 116.2 1 149.8 1C171 1 188.8 5.20001 203.2 13.6C217.6 22 228.4 33 235.6 46.6C242.8 59.8 246.4 73.8 246.4 88.6C246.4 113.8 238.8 135.6 223.6 154C208.8 172.4 183 192.8 146.2 215.2L105.4 240.4C122.6 271.6 150.2 314 188.2 367.6C220.2 413.6 246.4 446.4 266.8 466C283.6 452.4 296.4 435.8 305.2 416.2C314.4 396.6 319 375.6 319 353.2C319 314.4 306.2 277.6 280.6 242.8L298.6 224.8C311 244 320.2 263.8 326.2 284.2C332.6 304.2 335.8 323.8 335.8 343C335.8 369.4 330.4 393.8 319.6 416.2C308.8 438.6 293.4 457.2 273.4 472C294.6 490 314.6 499 333.4 499C350.6 499 364 492.4 373.6 479.2C383.2 466 388 446.2 388 419.8C388 412.6 387.8 407 387.4 403L411.4 415ZM60.4 104.2C60.4 138.2 74 181 101.2 232.6L142 208C165.2 193.6 183 180.4 195.4 168.4C207.8 156.4 216.4 144.2 221.2 131.8C226 119.4 228.4 105 228.4 88.6C228.4 65.8 222 46.6 209.2 31C196.4 15 176.6 6.99999 149.8 6.99999C121.4 6.99999 99.4 16 83.8 34C68.2 52 60.4 75.4 60.4 104.2ZM165.4 499C201.4 499 232.6 490 259 472C245.8 460.8 232.2 447.2 218.2 431.2C204.6 415.2 189.2 395.6 172 372.4C138 326.8 111 286 91 250C67.8 266.8 50 284.8 37.6 304C25.2 322.8 19 345.8 19 373C19 412.2 32.4 443 59.2 465.4C86 487.8 121.4 499 165.4 499Z" stroke="white"/>
</svg>
