<svg width="1387" height="617" viewBox="0 0 1387 617" fill="none" xmlns="http://www.w3.org/2000/svg">
<path d="M291 23.5C262.5 18 231 14.25 196.5 12.25C162 9.74999 134.25 8.49999 113.25 8.49999H25.5V314.5H67.5C94 314.5 117.75 314.25 138.75 313.75C160.25 312.75 186.5 310.5 217.5 307V329.5C186.5 326 160.25 324 138.75 323.5C117.75 322.5 94 322 67.5 322H25.5V466C25.5 484.5 25.75 503.75 26.25 523.75C26.75 543.75 28.25 569.5 30.75 601H1.5C4 569.5 5.5 543.75 6 523.75C6.5 503.75 6.75001 484.5 6.75001 466V136C6.75001 117.5 6.5 98.25 6 78.25C5.5 58.25 4 32.5 1.5 1H313.5L291 23.5ZM463.131 616C427.631 616 396.131 607.75 368.631 591.25C341.631 574.75 320.631 552.25 305.631 523.75C290.631 495.25 283.131 463.5 283.131 428.5C283.131 393.5 290.631 361.75 305.631 333.25C320.631 304.75 341.631 282.25 368.631 265.75C396.131 249.25 427.631 241 463.131 241C498.631 241 529.881 249.25 556.881 265.75C584.381 282.25 605.631 304.75 620.631 333.25C635.631 361.75 643.131 393.5 643.131 428.5C643.131 463.5 635.631 495.25 620.631 523.75C605.631 552.25 584.381 574.75 556.881 591.25C529.881 607.75 498.631 616 463.131 616ZM463.131 608.5C497.131 608.5 525.881 600.5 549.381 584.5C572.881 568.5 590.631 547 602.631 520C614.631 493 620.631 462.5 620.631 428.5C620.631 394.5 614.631 364 602.631 337C590.631 310 572.881 288.5 549.381 272.5C525.881 256.5 497.131 248.5 463.131 248.5C429.131 248.5 400.381 256.5 376.881 272.5C353.381 288.5 335.631 310 323.631 337C311.631 364 305.631 394.5 305.631 428.5C305.631 462.5 311.631 493 323.631 520C335.631 547 353.381 568.5 376.881 584.5C400.381 600.5 429.131 608.5 463.131 608.5ZM908.865 256C909.865 260 910.365 262.75 910.365 264.25C910.365 269.25 908.615 273.5 905.115 277C902.115 280.5 897.615 282.25 891.615 282.25C886.615 282.25 881.365 281.25 875.865 279.25C866.365 275.75 858.615 274 852.615 274C840.615 274 826.865 279 811.365 289C796.365 299 775.365 316.75 748.365 342.25V473.5C748.365 527 749.615 569.5 752.115 601H725.865C728.365 569.5 729.615 527 729.615 473.5V383.5C729.615 330 728.365 287.5 725.865 256H752.115C750.615 273.5 749.365 298.75 748.365 331.75C777.865 304.25 802.365 284.5 821.865 272.5C841.865 260.5 864.365 254.5 889.365 254.5C893.365 254.5 899.865 255 908.865 256ZM1359.39 601C1361.89 554.5 1363.14 509.5 1363.14 466V360.25C1363.14 320.75 1359.39 292.25 1351.89 274.75C1344.39 257.25 1331.39 248.5 1312.89 248.5C1268.39 248.5 1229.14 282.25 1195.14 349.75V466C1195.14 509.5 1196.39 554.5 1198.89 601H1172.64C1175.14 554.5 1176.39 509.5 1176.39 466V360.25C1176.39 320.75 1172.64 292.25 1165.14 274.75C1157.64 257.25 1144.64 248.5 1126.14 248.5C1081.64 248.5 1042.14 282.75 1007.64 351.25V473.5C1007.64 527 1008.89 569.5 1011.39 601H985.143C987.643 569.5 988.893 527 988.893 473.5V383.5C988.893 330 987.643 287.5 985.143 256H1011.39C1009.89 275 1008.64 302.25 1007.64 337.75C1020.14 312.25 1036.89 289.75 1057.89 270.25C1078.89 250.75 1102.39 241 1128.39 241C1150.89 241 1167.14 249.25 1177.14 265.75C1187.64 282.25 1193.64 306.25 1195.14 337.75C1207.14 312.25 1223.64 289.75 1244.64 270.25C1265.64 250.75 1289.14 241 1315.14 241C1339.14 241 1356.14 250.5 1366.14 269.5C1376.64 288.5 1381.89 316.25 1381.89 352.75V466C1381.89 509.5 1383.14 554.5 1385.64 601H1359.39Z" stroke="white"/>
</svg>
