<svg width="999" height="632" viewBox="0 0 999 632" fill="none" xmlns="http://www.w3.org/2000/svg">
<path d="M241 631C195.5 631 154.5 618 118 592C81.5 565.5 52.75 528.5 31.75 481C11.25 433 1 378 1 316C1 254.5 11.5 200 32.5 152.5C53.5 104.5 82 67.25 118 40.75C154.5 14.25 195.5 1 241 1C286 1 326.75 14.25 363.25 40.75C399.75 67.25 428.5 104.5 449.5 152.5C470.5 200 481 254.5 481 316C481 377.5 470.5 432.25 449.5 480.25C428.5 528.25 399.75 565.5 363.25 592C326.75 618 286 631 241 631ZM241 623.5C282.5 623.5 319.75 610 352.75 583C386.25 556 412.25 519.25 430.75 472.75C449.25 425.75 458.5 373.5 458.5 316C458.5 259 449.25 207 430.75 160C412.25 113 386.25 76 352.75 49C319.75 22 282.5 8.49999 241 8.49999C199 8.49999 161.5 22 128.5 49C95.5 76 69.75 113 51.25 160C32.75 207 23.5 259 23.5 316C23.5 373.5 32.75 425.75 51.25 472.75C69.75 519.25 95.5 556 128.5 583C161.5 610 199 623.5 241 623.5ZM837.854 291.25C884.854 299.25 923.104 318.25 952.604 348.25C982.604 377.75 997.604 414.75 997.604 459.25C997.604 493.75 988.604 524 970.604 550C952.604 576 928.104 596 897.104 610C866.604 624 832.854 631 795.854 631C758.354 631 724.104 624 693.104 610C662.604 596 638.354 576 620.354 550C602.354 524 593.354 493.75 593.354 459.25C593.354 414.75 608.104 377.75 637.604 348.25C667.604 318.25 706.104 299.25 753.104 291.25C726.604 285.75 704.104 275.5 685.604 260.5C667.604 245.5 653.854 228.25 644.354 208.75C635.354 188.75 630.854 168.5 630.854 148C630.854 124.5 637.104 101.5 649.604 79C662.104 56 680.604 37.25 705.104 22.75C730.104 8.25001 760.354 1 795.854 1C830.854 1 860.604 8.25001 885.104 22.75C910.104 37.25 928.853 56 941.354 79C953.854 101.5 960.104 124.5 960.104 148C960.104 168.5 955.354 188.75 945.854 208.75C936.854 228.25 923.104 245.5 904.604 260.5C886.604 275.5 864.354 285.75 837.854 291.25ZM653.354 148C653.354 171 658.604 193.25 669.104 214.75C679.604 236.25 695.604 254 717.104 268C738.604 281.5 764.854 288.25 795.854 288.25C826.854 288.25 852.854 281.5 873.854 268C895.354 254 911.354 236.25 921.854 214.75C932.354 193.25 937.604 171 937.604 148C937.604 125.5 932.354 103.5 921.854 82C911.354 60.5 895.354 43 873.854 29.5C852.854 15.5 826.854 8.49999 795.854 8.49999C764.854 8.49999 738.604 15.5 717.104 29.5C695.604 43 679.604 60.5 669.104 82C658.604 103.5 653.354 125.5 653.354 148ZM795.854 623.5C828.854 623.5 858.854 617 885.854 604C913.354 590.5 935.104 571.25 951.104 546.25C967.104 521.25 975.104 492.25 975.104 459.25C975.104 426.25 967.104 397.5 951.104 373C935.104 348 913.354 329 885.854 316C858.854 302.5 828.854 295.75 795.854 295.75C762.854 295.75 732.604 302.5 705.104 316C677.604 329 655.854 348 639.854 373C623.854 397.5 615.854 426.25 615.854 459.25C615.854 492.25 623.854 521.25 639.854 546.25C655.854 571.25 677.604 590.5 705.104 604C732.604 617 762.854 623.5 795.854 623.5Z" stroke="white"/>
</svg>
