<svg width="1771" height="617" viewBox="0 0 1771 617" fill="none" xmlns="http://www.w3.org/2000/svg">
<path d="M1 489.25C6 484.25 10.75 481.75 15.25 481.75C19.75 481.75 23.25 484 25.75 488.5C28.25 493 29.25 499.75 28.75 508.75C27.25 525.25 31.25 541.25 40.75 556.75C50.25 571.75 64.25 584.25 82.75 594.25C101.25 603.75 123.25 608.5 148.75 608.5C179.25 608.5 202.25 601 217.75 586C233.25 570.5 241 550.75 241 526.75C241 511.25 237 498.25 229 487.75C221.5 476.75 211 467 197.5 458.5C184 450 161.5 437.25 130 420.25C90.5 399.25 62.75 381.25 46.75 366.25C31.25 351.25 23.5 332.5 23.5 310C23.5 287.5 32 270.5 49 259C66 247 88.25 241 115.75 241C143.75 241 167 248.25 185.5 262.75C204 277.25 221.5 299.75 238 330.25C238 333.75 236.75 336.5 234.25 338.5C231.75 340.5 228.75 341.5 225.25 341.5C221.25 341.5 217.5 339.75 214 336.25C210.5 332.75 207.75 327.5 205.75 320.5C194.75 272.5 164.75 248.5 115.75 248.5C91.75 248.5 72.75 253.25 58.75 262.75C45.25 272.25 38.5 286.5 38.5 305.5C38.5 319.5 43.25 332.25 52.75 343.75C62.25 355.25 74 365.5 88 374.5C102.5 383.5 124 395.5 152.5 410.5C178.5 424.5 198.5 436.75 212.5 447.25C227 457.25 237.75 468.5 244.75 481C252.25 493.5 256 508.75 256 526.75C256 552.75 246.5 574.25 227.5 591.25C208.5 607.75 182.25 616 148.75 616C108.75 616 76 605.25 50.5 583.75C25 561.75 8.5 530.25 1 489.25ZM323.441 428.5C323.441 391.5 329.941 359 342.941 331C356.441 302.5 375.191 280.5 399.191 265C423.691 249 451.941 241 483.941 241C517.441 241 545.691 250.75 568.691 270.25C591.691 289.25 607.941 311.75 617.441 337.75C615.441 343.25 611.191 346 604.691 346C600.191 346 595.941 344.5 591.941 341.5C588.441 338 586.191 333.5 585.191 328C582.191 310.5 573.191 293 558.191 275.5C543.191 257.5 518.441 248.5 483.941 248.5C438.941 248.5 404.691 264.75 381.191 297.25C357.691 329.75 345.941 373.5 345.941 428.5C345.941 460 351.191 489.5 361.691 517C372.191 544.5 387.691 566.75 408.191 583.75C429.191 600.25 454.691 608.5 484.691 608.5C524.691 608.5 555.441 596 576.941 571C598.441 546 615.941 513.5 629.441 473.5H636.941C608.441 568.5 557.691 616 484.691 616C452.191 616 423.691 608.25 399.191 592.75C375.191 576.75 356.441 554.75 342.941 526.75C329.941 498.25 323.441 465.5 323.441 428.5ZM951.977 601C954.477 554.5 955.727 509.5 955.727 466V375.25C955.727 332.75 948.727 301 934.727 280C920.727 259 899.477 248.5 870.977 248.5C839.477 248.5 812.227 259 789.227 280C766.227 301 747.977 324.75 734.477 351.25V466C734.477 519.5 735.727 564.5 738.227 601H711.977C714.477 564.5 715.727 519.5 715.727 466V136C715.727 82.5 714.477 37.5 711.977 1H738.227C735.727 37.5 734.477 82.5 734.477 136V338.5C746.477 313.5 764.727 291 789.227 271C814.227 251 842.227 241 873.227 241C908.227 241 933.727 252 949.727 274C966.227 295.5 974.477 329.25 974.477 375.25V466C974.477 509.5 975.727 554.5 978.227 601H951.977ZM1240.99 616C1205.49 616 1173.99 607.75 1146.49 591.25C1119.49 574.75 1098.49 552.25 1083.49 523.75C1068.49 495.25 1060.99 463.5 1060.99 428.5C1060.99 393.5 1068.49 361.75 1083.49 333.25C1098.49 304.75 1119.49 282.25 1146.49 265.75C1173.99 249.25 1205.49 241 1240.99 241C1276.49 241 1307.74 249.25 1334.74 265.75C1362.24 282.25 1383.49 304.75 1398.49 333.25C1413.49 361.75 1420.99 393.5 1420.99 428.5C1420.99 463.5 1413.49 495.25 1398.49 523.75C1383.49 552.25 1362.24 574.75 1334.74 591.25C1307.74 607.75 1276.49 616 1240.99 616ZM1240.99 608.5C1274.99 608.5 1303.74 600.5 1327.24 584.5C1350.74 568.5 1368.49 547 1380.49 520C1392.49 493 1398.49 462.5 1398.49 428.5C1398.49 394.5 1392.49 364 1380.49 337C1368.49 310 1350.74 288.5 1327.24 272.5C1303.74 256.5 1274.99 248.5 1240.99 248.5C1206.99 248.5 1178.24 256.5 1154.74 272.5C1131.24 288.5 1113.49 310 1101.49 337C1089.49 364 1083.49 394.5 1083.49 428.5C1083.49 462.5 1089.49 493 1101.49 520C1113.49 547 1131.24 568.5 1154.74 584.5C1178.24 600.5 1206.99 608.5 1240.99 608.5ZM1158.49 121L1188.49 91L1218.49 121L1188.49 151L1158.49 121ZM1263.49 121L1293.49 91L1323.49 121L1293.49 151L1263.49 121ZM1743.72 601C1746.22 554.5 1747.47 509.5 1747.47 466V375.25C1747.47 332.75 1740.47 301 1726.47 280C1712.47 259 1691.22 248.5 1662.72 248.5C1631.22 248.5 1603.97 259 1580.97 280C1557.97 301 1539.72 324.75 1526.22 351.25V473.5C1526.22 527 1527.47 569.5 1529.97 601H1503.72C1506.22 569.5 1507.47 527 1507.47 473.5V383.5C1507.47 330 1506.22 287.5 1503.72 256H1529.97C1528.47 275 1527.22 302.25 1526.22 337.75C1538.22 312.75 1556.47 290.5 1580.97 271C1605.97 251 1633.97 241 1664.97 241C1699.97 241 1725.47 252 1741.47 274C1757.97 295.5 1766.22 329.25 1766.22 375.25V466C1766.22 509.5 1767.47 554.5 1769.97 601H1743.72Z" stroke="white"/>
</svg>
