<svg fill="none" xmlns="http://www.w3.org/2000/svg" viewBox="0 0 200 52"><path fill-rule="evenodd" clip-rule="evenodd" d="M13.257 18.486c.058-.11.555-1.193 1.209-2.12.325-.463.692-.879.994-1.143.302-.264.524-.392.524-.392a2.22 2.22 0 01.927-.375c.081-.011.162-.024.244-.019.082-.002.164 0 .246.015l.122.015.123.034.246.067c.65.243 1.24.69 1.756 1.202.679.586 1.262 1.302 1.759 2.075a10.291 10.291 0 00-1.294-1.893c-.503-.574-1.081-1.097-1.759-1.454-.544-.264-1.176-.404-1.76-.217-.582.171-1.077.569-1.486 1.02a8.225 8.225 0 00-1.052 1.514c-.303.538-.562 1.1-.8 1.67z" fill="#000"/><path fill-rule="evenodd" clip-rule="evenodd" d="M20.053 15.604a10.752 10.752 0 012.64 5.503 10.421 10.421 0 00-.652-1.813c-.416-1.323-1.072-2.596-1.988-3.69zM18.173 45.96l-.096.302-.106.29-.242.603c-.165.399-.339.79-.527 1.167-.19.377-.398.738-.629 1.067-.23.328-.49.625-.772.819-.283.197-.558.28-.835.241-.151-.017-.455-.23-.677-.501-.467-.554-.783-1.303-.947-2.071a7.834 7.834 0 01-.132-2.388c.01-.201.04-.403.073-.604.03-.2.059-.4.104-.61.08-.417.177-.834.275-1.252.271-1.242.603-2.495.876-3.796.23-1.11.42-2.281.438-3.465.031-1.232-.009-2.532-.3-3.82a13.563 13.563 0 00-.572-1.858c-.01-.028-.023-.055-.034-.084-.127.542-.337 1.043-.49 1.528.118.387.219.78.291 1.178.163.857.212 1.731.22 2.602.017.87-.045 1.745-.173 2.608-.254 1.727-.706 3.413-1.038 5.116-.166.852-.32 1.707-.346 2.565-.03.858.053 1.721.282 2.543.053.207.132.405.2.607.088.192.158.394.265.577.191.377.435.727.726 1.021.143.149.304.278.474.38.083.054.175.084.261.12.088.018.173.044.275.033.39.01.765-.157 1.075-.415.63-.526 1.04-1.306 1.396-2.076.176-.39.333-.791.483-1.196.151-.41.294-.805.398-1.22.421-1.668.697-3.39 1.004-5.1-.372 1.71-.714 3.442-1.2 5.089z" fill="#000"/><mask id="a" maskUnits="userSpaceOnUse" x="11" y="32" width="12" height="20"><path d="M11.633 32.422h11.051v19.563H11.633V32.422z" fill="#fff"/></mask><g mask="url(#a)"><path fill-rule="evenodd" clip-rule="evenodd" d="M13.855 34.417c-.004.101-.008.41-.034.876a16.1 16.1 0 01-.178 1.787c-.218 1.415-.75 3.184-1.246 4.976a41.5 41.5 0 00-.345 1.347c-.108.449-.206.886-.275 1.342a10.366 10.366 0 00-.112 2.507c.07.744.22 1.363.355 1.79.07.213.139.379.18.492.04.114.073.172.073.172.314.636.716 1.25 1.367 1.772.181.126.355.252.601.35.105.053.256.092.403.122.16.038.263.028.387.032.24.015.477-.033.711-.089.118-.026.218-.078.327-.119.108-.043.215-.09.303-.15.76-.454 1.204-1.063 1.567-1.64.36-.587.636-1.18.881-1.771.123-.296.237-.59.346-.881.102-.269.23-.634.312-.937a29.93 29.93 0 00.445-1.84c.258-1.21.479-2.413.705-3.605.092-.732.176-1.482.297-2.16.127-.69.308-1.408.492-2.118.38-1.424.797-2.844 1.267-4.25a71.526 71.526 0 00-1.35 3.444c-.414 1.16-.835 2.321-1.092 3.506-.264 1.202-.495 2.423-.752 3.638a68.235 68.235 0 01-.403 1.822c-.146.606-.296 1.21-.505 1.81-.333.943-.689 1.878-1.191 2.76-.254.437-.545.864-.933 1.22-.378.354-.902.626-1.46.604-.132.01-.287-.03-.42-.074l-.19-.085c-.063-.03-.116-.072-.174-.107a3.013 3.013 0 01-.588-.526 5.076 5.076 0 01-.802-1.31c-.411-.937-.577-1.957-.596-2.966-.02-1.013.145-2.014.339-2.987.195-.978.428-1.943.646-2.909.219-.965.42-1.931.543-2.905.127-.97.135-1.956.099-2.94z" fill="#000"/></g><path fill-rule="evenodd" clip-rule="evenodd" d="M12.041 21.554c.264-1.055.58-1.575.96-2.594.385-1.016.833-2.016 1.433-2.93a6.05 6.05 0 011.062-1.244c.414-.355.92-.636 1.48-.692.56-.058 1.11.13 1.595.381.489.257.926.601 1.318.985-.382-.401-.81-.766-1.302-1.044-.117-.078-.249-.133-.378-.192-.066-.028-.13-.06-.197-.085l-.207-.062a2.206 2.206 0 00-.868-.098c-.597.044-1.146.334-1.588.697-.447.367-.82.805-1.143 1.266a10.97 10.97 0 00-.638 1.068c-.165.314-.321.631-.464.953-.314.697-.585 1.41-.828 2.131-.186.685-.344.852-.482 1.545l.247-.085z" fill="#000"/><path fill-rule="evenodd" clip-rule="evenodd" d="M13.465 32.025a12.237 12.237 0 00-.731-2.322c-.168-.4-.354-.793-.532-1.19-.172-.4-.339-.803-.476-1.217a9.414 9.414 0 01-.503-2.561c-.043-.873.046-1.752.226-2.606.262-.1.523-.191.781-.276-.199 1.054-.28 2.106-.136 3.113.134 1.01.477 1.974.937 2.925.051.13.106.262.164.394l.178.41a18.04 18.04 0 01.541 1.372c.6-2.608 1.446-6.219 1.975-7.691.22-.613 1.777-3.97 1.884-8.215a3.57 3.57 0 00-.25-.106l-.247-.066-.122-.034-.123-.015a1.175 1.175 0 00-.245-.015c-.082-.005-.163.007-.245.018a2.22 2.22 0 00-.927.376s-.221.127-.524.392c-.302.264-.668.68-.994 1.142-.654.928-1.15 2.01-1.209 2.12a15.57 15.57 0 01.8-1.67c.3-.539.64-1.057 1.051-1.513.41-.453.904-.85 1.487-1.021.51-.164 1.058-.077 1.552.124v-.123c-.37-.144-.768-.23-1.17-.188-.56.055-1.066.336-1.48.691a6.047 6.047 0 00-1.063 1.245c-.6.913-1.047 1.913-1.433 2.93-.38 1.018-.537 2.047-.802 3.102l-.405.099c.139-.693.297-1.383.483-2.068.243-.72.513-1.433.827-2.13.143-.322.299-.64.464-.953.192-.366.403-.724.638-1.069a6.317 6.317 0 011.143-1.265c.443-.363.991-.654 1.588-.698.293-.018.597.002.868.099l.207.061c.047.017.091.039.136.06a16.566 16.566 0 00-.343-3.387C16.188 4.363 12.755.545 9.065.075 3.376-.649 2.424 4.05 1.99 5.87c-.434 1.822-.904 5.895-.657 8.17.202 1.845 1.493 8.221.955 11.35-.54 3.14-1.994 8.725-2.27 12.15-.275 3.427 2.388 6.029 5.528 6.282 3.14.254 5.106-2.77 5.783-4.043.677-1.27 1.586-5.442 2.02-7.263l.115-.49zM22.883 21.139c.359 1.195.852 4.835.212 7.754a80.675 80.675 0 01-.446 1.945c-.137.532-.31 1.053-.53 1.557a66.881 66.881 0 00-1.792 4.68 25.131 25.131 0 00-.492 1.603c-.141.547-.246 1.09-.356 1.632.136-.538.267-1.078.433-1.617.168-.536.364-1.058.566-1.578a67.652 67.652 0 012.009-4.59c.251-.513.35-1.03.537-1.567.232-.664.41-1.182.58-2.056.699-3.592-.265-6.662-.72-7.763z" fill="#000"/><mask id="b" maskUnits="userSpaceOnUse" x="44.296" y="8.02" width="155" height="28" fill="#000"><path fill="#fff" d="M44.296 8.02h155v28h-155z"/><path d="M45.296 13.43h14.893v3.263H49.072v5.649h9.758v3.081h-9.758V35h-3.776V13.43zM69.88 35.422c-1.25 0-2.367-.201-3.354-.604a7.492 7.492 0 01-2.477-1.722c-.665-.725-1.178-1.59-1.54-2.598-.343-1.007-.514-2.114-.514-3.323 0-1.188.17-2.286.513-3.293.363-1.007.876-1.873 1.541-2.598a7.134 7.134 0 012.477-1.691c.987-.423 2.105-.635 3.353-.635 1.249 0 2.357.212 3.323.635.987.403 1.813.966 2.478 1.692a7.018 7.018 0 011.54 2.598c.363 1.006.544 2.104.544 3.292 0 1.209-.181 2.316-.544 3.323a7.018 7.018 0 01-1.54 2.598c-.665.725-1.49 1.3-2.478 1.722-.966.403-2.074.604-3.323.604zm0-2.718c.765 0 1.43-.162 1.993-.484a4.2 4.2 0 001.39-1.269 5.312 5.312 0 00.785-1.752 7.547 7.547 0 000-4.018 4.966 4.966 0 00-.785-1.752 4.202 4.202 0 00-1.39-1.268c-.564-.323-1.228-.484-1.994-.484-.765 0-1.43.161-1.993.483a4.203 4.203 0 00-1.39 1.27 5.399 5.399 0 00-.816 1.752 8.437 8.437 0 000 4.017 5.82 5.82 0 00.816 1.752 4.2 4.2 0 001.39 1.27c.564.322 1.228.483 1.993.483zM80.627 19.381h3.232v3.021h.06c.102-.423.293-.836.575-1.238a6 6 0 011.057-1.088 5.36 5.36 0 011.39-.816 4.115 4.115 0 011.54-.302c.403 0 .675.01.816.03l.483.061v3.323a8.591 8.591 0 00-.755-.09 4.401 4.401 0 00-.725-.061c-.584 0-1.138.12-1.661.363a3.596 3.596 0 00-1.33 1.027c-.382.443-.684.997-.906 1.661-.221.665-.332 1.43-.332 2.296v7.431h-3.444V19.381zM91.247 19.381h3.263v2.175h.09c.263-.382.544-.735.847-1.057.302-.322.634-.594.996-.816a5.002 5.002 0 011.3-.513 5.947 5.947 0 011.66-.212c.947 0 1.824.212 2.629.635.826.423 1.41 1.077 1.752 1.963.584-.805 1.259-1.44 2.024-1.903.766-.463 1.722-.695 2.87-.695 1.652 0 2.93.403 3.837 1.209.926.805 1.389 2.155 1.389 4.048v10.784h-3.443v-9.123c0-.624-.021-1.188-.061-1.691-.04-.524-.161-.967-.362-1.33a1.883 1.883 0 00-.846-.876c-.383-.201-.907-.302-1.571-.302-1.168 0-2.014.363-2.538 1.088-.523.725-.785 1.752-.785 3.081V35h-3.444V24.97c0-1.087-.201-1.903-.604-2.447-.383-.564-1.098-.846-2.145-.846-.443 0-.876.09-1.3.272a3.407 3.407 0 00-1.087.785 4.325 4.325 0 00-.755 1.27c-.181.503-.272 1.077-.272 1.721V35h-3.444V19.381zM116.835 30.29c.26-.367.563-.552.909-.552.282 0 .509.13.682.39.195.238.292.596.292 1.072 0 .693.184 1.353.553 1.98.389.607.952 1.105 1.688 1.495.758.368 1.646.552 2.663.552 1.256 0 2.198-.314 2.825-.942.65-.628.975-1.44.975-2.436 0-.65-.163-1.19-.487-1.623-.325-.455-.791-.866-1.397-1.234-.584-.368-1.559-.92-2.923-1.657-1.19-.628-2.11-1.158-2.76-1.59-.649-.434-1.158-.91-1.526-1.43-.368-.52-.552-1.136-.552-1.85 0-1.062.422-1.863 1.266-2.404.845-.541 1.916-.812 3.215-.812 1.321 0 2.425.325 3.313.974.909.65 1.721 1.624 2.435 2.923a.896.896 0 01-.844.585.956.956 0 01-.65-.26c-.194-.195-.335-.466-.422-.812-.216-.91-.617-1.635-1.201-2.176-.563-.541-1.429-.812-2.598-.812-.996 0-1.786.195-2.371.585-.563.39-.844.974-.844 1.753 0 .585.184 1.105.552 1.56.389.454.898.876 1.526 1.266.65.39 1.559.887 2.728 1.494 1.234.627 2.176 1.169 2.825 1.623.65.433 1.148.942 1.494 1.527.368.563.552 1.255.552 2.078 0 1.213-.465 2.198-1.396 2.955-.91.758-2.165 1.137-3.767 1.137-1.819 0-3.313-.455-4.482-1.364-1.169-.93-1.927-2.262-2.273-3.994zM131.589 27.433c0-1.646.314-3.085.942-4.32.628-1.233 1.494-2.186 2.598-2.857 1.126-.671 2.425-1.007 3.897-1.007 1.581 0 2.901.433 3.962 1.3 1.061.843 1.797 1.85 2.208 3.02-.216.346-.498.519-.844.519-.26 0-.498-.098-.714-.292-.195-.195-.325-.455-.39-.78-.152-.8-.531-1.559-1.137-2.273-.606-.736-1.613-1.104-3.02-1.104-1.862 0-3.258.682-4.189 2.046-.931 1.364-1.397 3.247-1.397 5.65 0 1.386.217 2.674.65 3.865.433 1.169 1.093 2.11 1.981 2.825.888.715 1.981 1.072 3.28 1.072 1.645 0 2.955-.53 3.929-1.591.975-1.083 1.732-2.48 2.274-4.19h.389c-1.234 4.222-3.561 6.333-6.982 6.333-1.472 0-2.771-.336-3.897-1.007-1.104-.67-1.97-1.623-2.598-2.858-.628-1.255-.942-2.706-.942-4.351zM159.795 35a94.74 94.74 0 00.195-6.04v-4.125c0-1.689-.282-2.955-.845-3.8-.541-.844-1.385-1.266-2.533-1.266-1.277 0-2.392.433-3.345 1.299a10.198 10.198 0 00-2.305 3.085v4.741c0 2.403.065 4.438.195 6.105h-2.079c.13-1.667.195-3.702.195-6.105V15.092c0-2.381-.065-4.405-.195-6.072h2.079c-.13 1.667-.195 3.69-.195 6.072v8.379c.541-1.126 1.342-2.111 2.403-2.955 1.082-.845 2.327-1.267 3.734-1.267 1.559 0 2.707.476 3.443 1.429.758.953 1.136 2.457 1.136 4.514v3.767c0 .845.011 1.721.033 2.63.022.888.087 2.025.195 3.41h-2.111zM173.616 35.649c-1.646 0-3.107-.346-4.385-1.04a7.58 7.58 0 01-2.922-2.922c-.693-1.256-1.04-2.674-1.04-4.254 0-1.559.347-2.955 1.04-4.19a7.301 7.301 0 012.922-2.922c1.278-.715 2.739-1.072 4.385-1.072 1.623 0 3.063.357 4.319 1.072a7.254 7.254 0 012.955 2.922c.714 1.235 1.072 2.631 1.072 4.19 0 1.559-.358 2.966-1.072 4.222a7.466 7.466 0 01-2.955 2.955c-1.256.693-2.696 1.039-4.319 1.039zm0-.39c2.078 0 3.669-.714 4.773-2.143 1.104-1.45 1.657-3.345 1.657-5.683 0-2.317-.553-4.19-1.657-5.618-1.104-1.45-2.695-2.176-4.773-2.176-2.079 0-3.67.725-4.774 2.176-1.104 1.428-1.657 3.301-1.657 5.618 0 2.338.553 4.232 1.657 5.683 1.104 1.429 2.695 2.143 4.774 2.143zm-4.027-21.173l1.558-1.527 1.527 1.527-1.527 1.558-1.558-1.558zm4.968 0l1.559-1.527 1.526 1.527-1.526 1.558-1.559-1.558zM196.012 35a94.74 94.74 0 00.195-6.04v-4.125c0-1.689-.282-2.955-.844-3.8-.542-.844-1.386-1.266-2.534-1.266-1.277 0-2.392.433-3.344 1.299a10.184 10.184 0 00-2.306 3.085v5.066c0 2.381.065 4.308.195 5.78h-2.079c.13-1.472.195-3.399.195-5.78v-3.572c0-2.36-.065-4.276-.195-5.748h2.079c-.087.844-.152 2.024-.195 3.54.563-1.148 1.375-2.133 2.435-2.956 1.061-.823 2.295-1.234 3.703-1.234 1.558 0 2.706.476 3.442 1.429.758.953 1.137 2.457 1.137 4.514v3.767c0 .845.01 1.721.032 2.63.022.888.087 2.025.195 3.41h-2.111z"/></mask><path d="M45.296 13.43h14.893v3.263H49.072v5.649h9.758v3.081h-9.758V35h-3.776V13.43zM69.88 35.422c-1.25 0-2.367-.201-3.354-.604a7.492 7.492 0 01-2.477-1.722c-.665-.725-1.178-1.59-1.54-2.598-.343-1.007-.514-2.114-.514-3.323 0-1.188.17-2.286.513-3.293.363-1.007.876-1.873 1.541-2.598a7.134 7.134 0 012.477-1.691c.987-.423 2.105-.635 3.353-.635 1.249 0 2.357.212 3.323.635.987.403 1.813.966 2.478 1.692a7.018 7.018 0 011.54 2.598c.363 1.006.544 2.104.544 3.292 0 1.209-.181 2.316-.544 3.323a7.018 7.018 0 01-1.54 2.598c-.665.725-1.49 1.3-2.478 1.722-.966.403-2.074.604-3.323.604zm0-2.718c.765 0 1.43-.162 1.993-.484a4.2 4.2 0 001.39-1.269 5.312 5.312 0 00.785-1.752 7.547 7.547 0 000-4.018 4.966 4.966 0 00-.785-1.752 4.202 4.202 0 00-1.39-1.268c-.564-.323-1.228-.484-1.994-.484-.765 0-1.43.161-1.993.483a4.203 4.203 0 00-1.39 1.27 5.399 5.399 0 00-.816 1.752 8.437 8.437 0 000 4.017 5.82 5.82 0 00.816 1.752 4.2 4.2 0 001.39 1.27c.564.322 1.228.483 1.993.483zM80.627 19.381h3.232v3.021h.06c.102-.423.293-.836.575-1.238a6 6 0 011.057-1.088 5.36 5.36 0 011.39-.816 4.115 4.115 0 011.54-.302c.403 0 .675.01.816.03l.483.061v3.323a8.591 8.591 0 00-.755-.09 4.401 4.401 0 00-.725-.061c-.584 0-1.138.12-1.661.363a3.596 3.596 0 00-1.33 1.027c-.382.443-.684.997-.906 1.661-.221.665-.332 1.43-.332 2.296v7.431h-3.444V19.381zM91.247 19.381h3.263v2.175h.09c.263-.382.544-.735.847-1.057.302-.322.634-.594.996-.816a5.002 5.002 0 011.3-.513 5.947 5.947 0 011.66-.212c.947 0 1.824.212 2.629.635.826.423 1.41 1.077 1.752 1.963.584-.805 1.259-1.44 2.024-1.903.766-.463 1.722-.695 2.87-.695 1.652 0 2.93.403 3.837 1.209.926.805 1.389 2.155 1.389 4.048v10.784h-3.443v-9.123c0-.624-.021-1.188-.061-1.691-.04-.524-.161-.967-.362-1.33a1.883 1.883 0 00-.846-.876c-.383-.201-.907-.302-1.571-.302-1.168 0-2.014.363-2.538 1.088-.523.725-.785 1.752-.785 3.081V35h-3.444V24.97c0-1.087-.201-1.903-.604-2.447-.383-.564-1.098-.846-2.145-.846-.443 0-.876.09-1.3.272a3.407 3.407 0 00-1.087.785 4.325 4.325 0 00-.755 1.27c-.181.503-.272 1.077-.272 1.721V35h-3.444V19.381zM116.835 30.29c.26-.367.563-.552.909-.552.282 0 .509.13.682.39.195.238.292.596.292 1.072 0 .693.184 1.353.553 1.98.389.607.952 1.105 1.688 1.495.758.368 1.646.552 2.663.552 1.256 0 2.198-.314 2.825-.942.65-.628.975-1.44.975-2.436 0-.65-.163-1.19-.487-1.623-.325-.455-.791-.866-1.397-1.234-.584-.368-1.559-.92-2.923-1.657-1.19-.628-2.11-1.158-2.76-1.59-.649-.434-1.158-.91-1.526-1.43-.368-.52-.552-1.136-.552-1.85 0-1.062.422-1.863 1.266-2.404.845-.541 1.916-.812 3.215-.812 1.321 0 2.425.325 3.313.974.909.65 1.721 1.624 2.435 2.923a.896.896 0 01-.844.585.956.956 0 01-.65-.26c-.194-.195-.335-.466-.422-.812-.216-.91-.617-1.635-1.201-2.176-.563-.541-1.429-.812-2.598-.812-.996 0-1.786.195-2.371.585-.563.39-.844.974-.844 1.753 0 .585.184 1.105.552 1.56.389.454.898.876 1.526 1.266.65.39 1.559.887 2.728 1.494 1.234.627 2.176 1.169 2.825 1.623.65.433 1.148.942 1.494 1.527.368.563.552 1.255.552 2.078 0 1.213-.465 2.198-1.396 2.955-.91.758-2.165 1.137-3.767 1.137-1.819 0-3.313-.455-4.482-1.364-1.169-.93-1.927-2.262-2.273-3.994zM131.589 27.433c0-1.646.314-3.085.942-4.32.628-1.233 1.494-2.186 2.598-2.857 1.126-.671 2.425-1.007 3.897-1.007 1.581 0 2.901.433 3.962 1.3 1.061.843 1.797 1.85 2.208 3.02-.216.346-.498.519-.844.519-.26 0-.498-.098-.714-.292-.195-.195-.325-.455-.39-.78-.152-.8-.531-1.559-1.137-2.273-.606-.736-1.613-1.104-3.02-1.104-1.862 0-3.258.682-4.189 2.046-.931 1.364-1.397 3.247-1.397 5.65 0 1.386.217 2.674.65 3.865.433 1.169 1.093 2.11 1.981 2.825.888.715 1.981 1.072 3.28 1.072 1.645 0 2.955-.53 3.929-1.591.975-1.083 1.732-2.48 2.274-4.19h.389c-1.234 4.222-3.561 6.333-6.982 6.333-1.472 0-2.771-.336-3.897-1.007-1.104-.67-1.97-1.623-2.598-2.858-.628-1.255-.942-2.706-.942-4.351zM159.795 35a94.74 94.74 0 00.195-6.04v-4.125c0-1.689-.282-2.955-.845-3.8-.541-.844-1.385-1.266-2.533-1.266-1.277 0-2.392.433-3.345 1.299a10.198 10.198 0 00-2.305 3.085v4.741c0 2.403.065 4.438.195 6.105h-2.079c.13-1.667.195-3.702.195-6.105V15.092c0-2.381-.065-4.405-.195-6.072h2.079c-.13 1.667-.195 3.69-.195 6.072v8.379c.541-1.126 1.342-2.111 2.403-2.955 1.082-.845 2.327-1.267 3.734-1.267 1.559 0 2.707.476 3.443 1.429.758.953 1.136 2.457 1.136 4.514v3.767c0 .845.011 1.721.033 2.63.022.888.087 2.025.195 3.41h-2.111zM173.616 35.649c-1.646 0-3.107-.346-4.385-1.04a7.58 7.58 0 01-2.922-2.922c-.693-1.256-1.04-2.674-1.04-4.254 0-1.559.347-2.955 1.04-4.19a7.301 7.301 0 012.922-2.922c1.278-.715 2.739-1.072 4.385-1.072 1.623 0 3.063.357 4.319 1.072a7.254 7.254 0 012.955 2.922c.714 1.235 1.072 2.631 1.072 4.19 0 1.559-.358 2.966-1.072 4.222a7.466 7.466 0 01-2.955 2.955c-1.256.693-2.696 1.039-4.319 1.039zm0-.39c2.078 0 3.669-.714 4.773-2.143 1.104-1.45 1.657-3.345 1.657-5.683 0-2.317-.553-4.19-1.657-5.618-1.104-1.45-2.695-2.176-4.773-2.176-2.079 0-3.67.725-4.774 2.176-1.104 1.428-1.657 3.301-1.657 5.618 0 2.338.553 4.232 1.657 5.683 1.104 1.429 2.695 2.143 4.774 2.143zm-4.027-21.173l1.558-1.527 1.527 1.527-1.527 1.558-1.558-1.558zm4.968 0l1.559-1.527 1.526 1.527-1.526 1.558-1.559-1.558zM196.012 35a94.74 94.74 0 00.195-6.04v-4.125c0-1.689-.282-2.955-.844-3.8-.542-.844-1.386-1.266-2.534-1.266-1.277 0-2.392.433-3.344 1.299a10.184 10.184 0 00-2.306 3.085v5.066c0 2.381.065 4.308.195 5.78h-2.079c.13-1.472.195-3.399.195-5.78v-3.572c0-2.36-.065-4.276-.195-5.748h2.079c-.087.844-.152 2.024-.195 3.54.563-1.148 1.375-2.133 2.435-2.956 1.061-.823 2.295-1.234 3.703-1.234 1.558 0 2.706.476 3.442 1.429.758.953 1.137 2.457 1.137 4.514v3.767c0 .845.01 1.721.032 2.63.022.888.087 2.025.195 3.41h-2.111z" fill="#000"/><path d="M45.296 13.43h14.893v3.263H49.072v5.649h9.758v3.081h-9.758V35h-3.776V13.43zM69.88 35.422c-1.25 0-2.367-.201-3.354-.604a7.492 7.492 0 01-2.477-1.722c-.665-.725-1.178-1.59-1.54-2.598-.343-1.007-.514-2.114-.514-3.323 0-1.188.17-2.286.513-3.293.363-1.007.876-1.873 1.541-2.598a7.134 7.134 0 012.477-1.691c.987-.423 2.105-.635 3.353-.635 1.249 0 2.357.212 3.323.635.987.403 1.813.966 2.478 1.692a7.018 7.018 0 011.54 2.598c.363 1.006.544 2.104.544 3.292 0 1.209-.181 2.316-.544 3.323a7.018 7.018 0 01-1.54 2.598c-.665.725-1.49 1.3-2.478 1.722-.966.403-2.074.604-3.323.604zm0-2.718c.765 0 1.43-.162 1.993-.484a4.2 4.2 0 001.39-1.269 5.312 5.312 0 00.785-1.752 7.547 7.547 0 000-4.018 4.966 4.966 0 00-.785-1.752 4.202 4.202 0 00-1.39-1.268c-.564-.323-1.228-.484-1.994-.484-.765 0-1.43.161-1.993.483a4.203 4.203 0 00-1.39 1.27 5.399 5.399 0 00-.816 1.752 8.437 8.437 0 000 4.017 5.82 5.82 0 00.816 1.752 4.2 4.2 0 001.39 1.27c.564.322 1.228.483 1.993.483zM80.627 19.381h3.232v3.021h.06c.102-.423.293-.836.575-1.238a6 6 0 011.057-1.088 5.36 5.36 0 011.39-.816 4.115 4.115 0 011.54-.302c.403 0 .675.01.816.03l.483.061v3.323a8.591 8.591 0 00-.755-.09 4.401 4.401 0 00-.725-.061c-.584 0-1.138.12-1.661.363a3.596 3.596 0 00-1.33 1.027c-.382.443-.684.997-.906 1.661-.221.665-.332 1.43-.332 2.296v7.431h-3.444V19.381zM91.247 19.381h3.263v2.175h.09c.263-.382.544-.735.847-1.057.302-.322.634-.594.996-.816a5.002 5.002 0 011.3-.513 5.947 5.947 0 011.66-.212c.947 0 1.824.212 2.629.635.826.423 1.41 1.077 1.752 1.963.584-.805 1.259-1.44 2.024-1.903.766-.463 1.722-.695 2.87-.695 1.652 0 2.93.403 3.837 1.209.926.805 1.389 2.155 1.389 4.048v10.784h-3.443v-9.123c0-.624-.021-1.188-.061-1.691-.04-.524-.161-.967-.362-1.33a1.883 1.883 0 00-.846-.876c-.383-.201-.907-.302-1.571-.302-1.168 0-2.014.363-2.538 1.088-.523.725-.785 1.752-.785 3.081V35h-3.444V24.97c0-1.087-.201-1.903-.604-2.447-.383-.564-1.098-.846-2.145-.846-.443 0-.876.09-1.3.272a3.407 3.407 0 00-1.087.785 4.325 4.325 0 00-.755 1.27c-.181.503-.272 1.077-.272 1.721V35h-3.444V19.381zM116.835 30.29c.26-.367.563-.552.909-.552.282 0 .509.13.682.39.195.238.292.596.292 1.072 0 .693.184 1.353.553 1.98.389.607.952 1.105 1.688 1.495.758.368 1.646.552 2.663.552 1.256 0 2.198-.314 2.825-.942.65-.628.975-1.44.975-2.436 0-.65-.163-1.19-.487-1.623-.325-.455-.791-.866-1.397-1.234-.584-.368-1.559-.92-2.923-1.657-1.19-.628-2.11-1.158-2.76-1.59-.649-.434-1.158-.91-1.526-1.43-.368-.52-.552-1.136-.552-1.85 0-1.062.422-1.863 1.266-2.404.845-.541 1.916-.812 3.215-.812 1.321 0 2.425.325 3.313.974.909.65 1.721 1.624 2.435 2.923a.896.896 0 01-.844.585.956.956 0 01-.65-.26c-.194-.195-.335-.466-.422-.812-.216-.91-.617-1.635-1.201-2.176-.563-.541-1.429-.812-2.598-.812-.996 0-1.786.195-2.371.585-.563.39-.844.974-.844 1.753 0 .585.184 1.105.552 1.56.389.454.898.876 1.526 1.266.65.39 1.559.887 2.728 1.494 1.234.627 2.176 1.169 2.825 1.623.65.433 1.148.942 1.494 1.527.368.563.552 1.255.552 2.078 0 1.213-.465 2.198-1.396 2.955-.91.758-2.165 1.137-3.767 1.137-1.819 0-3.313-.455-4.482-1.364-1.169-.93-1.927-2.262-2.273-3.994zM131.589 27.433c0-1.646.314-3.085.942-4.32.628-1.233 1.494-2.186 2.598-2.857 1.126-.671 2.425-1.007 3.897-1.007 1.581 0 2.901.433 3.962 1.3 1.061.843 1.797 1.85 2.208 3.02-.216.346-.498.519-.844.519-.26 0-.498-.098-.714-.292-.195-.195-.325-.455-.39-.78-.152-.8-.531-1.559-1.137-2.273-.606-.736-1.613-1.104-3.02-1.104-1.862 0-3.258.682-4.189 2.046-.931 1.364-1.397 3.247-1.397 5.65 0 1.386.217 2.674.65 3.865.433 1.169 1.093 2.11 1.981 2.825.888.715 1.981 1.072 3.28 1.072 1.645 0 2.955-.53 3.929-1.591.975-1.083 1.732-2.48 2.274-4.19h.389c-1.234 4.222-3.561 6.333-6.982 6.333-1.472 0-2.771-.336-3.897-1.007-1.104-.67-1.97-1.623-2.598-2.858-.628-1.255-.942-2.706-.942-4.351zM159.795 35a94.74 94.74 0 00.195-6.04v-4.125c0-1.689-.282-2.955-.845-3.8-.541-.844-1.385-1.266-2.533-1.266-1.277 0-2.392.433-3.345 1.299a10.198 10.198 0 00-2.305 3.085v4.741c0 2.403.065 4.438.195 6.105h-2.079c.13-1.667.195-3.702.195-6.105V15.092c0-2.381-.065-4.405-.195-6.072h2.079c-.13 1.667-.195 3.69-.195 6.072v8.379c.541-1.126 1.342-2.111 2.403-2.955 1.082-.845 2.327-1.267 3.734-1.267 1.559 0 2.707.476 3.443 1.429.758.953 1.136 2.457 1.136 4.514v3.767c0 .845.011 1.721.033 2.63.022.888.087 2.025.195 3.41h-2.111zM173.616 35.649c-1.646 0-3.107-.346-4.385-1.04a7.58 7.58 0 01-2.922-2.922c-.693-1.256-1.04-2.674-1.04-4.254 0-1.559.347-2.955 1.04-4.19a7.301 7.301 0 012.922-2.922c1.278-.715 2.739-1.072 4.385-1.072 1.623 0 3.063.357 4.319 1.072a7.254 7.254 0 012.955 2.922c.714 1.235 1.072 2.631 1.072 4.19 0 1.559-.358 2.966-1.072 4.222a7.466 7.466 0 01-2.955 2.955c-1.256.693-2.696 1.039-4.319 1.039zm0-.39c2.078 0 3.669-.714 4.773-2.143 1.104-1.45 1.657-3.345 1.657-5.683 0-2.317-.553-4.19-1.657-5.618-1.104-1.45-2.695-2.176-4.773-2.176-2.079 0-3.67.725-4.774 2.176-1.104 1.428-1.657 3.301-1.657 5.618 0 2.338.553 4.232 1.657 5.683 1.104 1.429 2.695 2.143 4.774 2.143zm-4.027-21.173l1.558-1.527 1.527 1.527-1.527 1.558-1.558-1.558zm4.968 0l1.559-1.527 1.526 1.527-1.526 1.558-1.559-1.558zM196.012 35a94.74 94.74 0 00.195-6.04v-4.125c0-1.689-.282-2.955-.844-3.8-.542-.844-1.386-1.266-2.534-1.266-1.277 0-2.392.433-3.344 1.299a10.184 10.184 0 00-2.306 3.085v5.066c0 2.381.065 4.308.195 5.78h-2.079c.13-1.472.195-3.399.195-5.78v-3.572c0-2.36-.065-4.276-.195-5.748h2.079c-.087.844-.152 2.024-.195 3.54.563-1.148 1.375-2.133 2.435-2.956 1.061-.823 2.295-1.234 3.703-1.234 1.558 0 2.706.476 3.442 1.429.758.953 1.137 2.457 1.137 4.514v3.767c0 .845.01 1.721.032 2.63.022.888.087 2.025.195 3.41h-2.111z" stroke="#000" stroke-width=".444" mask="url(#b)"/></svg>