<svg width="200" height="52" viewBox="0 0 200 52" fill="none" xmlns="http://www.w3.org/2000/svg">
<path fill-rule="evenodd" clip-rule="evenodd" d="M13.2568 18.4858C13.315 18.3753 13.8117 17.2932 14.466 16.3656C14.7915 15.9028 15.1575 15.4873 15.4596 15.2229C15.7622 14.9587 15.984 14.8307 15.984 14.8307C16.2714 14.6365 16.5863 14.5009 16.9108 14.4557C16.9922 14.4445 17.0731 14.4324 17.1553 14.4374C17.2372 14.4348 17.3191 14.4371 17.401 14.4518L17.5231 14.4669L17.646 14.5006L17.8922 14.5675C18.5413 14.8108 19.1327 15.2571 19.6481 15.7703C20.3267 16.3562 20.9105 17.0722 21.4067 17.8448C21.0451 17.1707 20.616 16.5302 20.113 15.9519C19.6098 15.3776 19.032 14.8547 18.3542 14.498C17.8098 14.2338 17.1782 14.094 16.5949 14.2811C16.0116 14.452 15.517 14.8495 15.1082 15.3018C14.6971 15.7583 14.3559 16.2762 14.0559 16.8148C13.753 17.3528 13.4937 17.9149 13.2568 18.4858Z" fill="black"/>
<path fill-rule="evenodd" clip-rule="evenodd" d="M20.0527 15.6035C21.4458 17.1434 22.3742 19.0805 22.6927 21.1066C22.5328 20.4785 22.31 19.8735 22.0413 19.2942C21.6247 17.9707 20.9686 16.6981 20.0527 15.6035Z" fill="black"/>
<path fill-rule="evenodd" clip-rule="evenodd" d="M18.1734 45.9596L18.0771 46.2624L17.9714 46.5525L17.7288 47.155C17.5637 47.5538 17.3902 47.9447 17.2021 48.3225C17.0125 48.6991 16.8041 49.06 16.5732 49.3889C16.3434 49.7171 16.0828 50.0142 15.8013 50.2079C15.5185 50.4052 15.2428 50.4872 14.9665 50.4493C14.8149 50.4321 14.511 50.2196 14.2888 49.9476C13.8223 49.3936 13.5056 48.6455 13.3415 47.8768C13.1712 47.1041 13.137 46.2938 13.2101 45.4887C13.2202 45.2875 13.25 45.0863 13.2831 44.8853C13.3126 44.6854 13.3418 44.4853 13.3874 44.2741C13.4673 43.8581 13.5638 43.4408 13.6621 43.0227C13.9334 41.781 14.2648 40.5275 14.5381 39.2273C14.768 38.1164 14.9571 36.9458 14.9759 35.7618C15.0072 34.53 14.9675 33.2295 14.6764 31.9415C14.5316 31.3016 14.3323 30.6794 14.1041 30.0844C14.0931 30.0557 14.0806 30.0287 14.0696 30C13.9431 30.5422 13.7328 31.0434 13.58 31.5279C13.6981 31.9146 13.7986 32.3073 13.8711 32.7064C14.0341 33.5629 14.0829 34.4372 14.0905 35.3077C14.1077 36.1778 14.0456 37.0534 13.9183 37.9158C13.664 39.6427 13.2119 41.3287 12.8798 43.0316C12.7139 43.8835 12.5605 44.7387 12.5341 45.5971C12.5044 46.4553 12.5871 47.3181 12.8156 48.1404C12.8686 48.3468 12.9479 48.5452 13.0154 48.7466C13.1039 48.9392 13.1741 49.1412 13.2813 49.3239C13.4722 49.7009 13.7156 50.0513 14.0065 50.3453C14.1497 50.494 14.3107 50.6231 14.4808 50.7245C14.564 50.7788 14.6558 50.8086 14.7421 50.8449C14.8301 50.8632 14.9151 50.8886 15.0166 50.8784C15.4071 50.8888 15.7817 50.7211 16.0924 50.4626C16.7211 49.9366 17.1312 49.1566 17.4883 48.3873C17.6639 47.9967 17.8207 47.5956 17.9709 47.1908C18.1222 46.7803 18.2647 46.3857 18.369 45.9708C18.7901 44.3026 19.0663 42.5814 19.3726 40.8703C19.0011 42.5814 18.6594 44.3133 18.1734 45.9596Z" fill="black"/>
<mask id="mask0" mask-type="alpha" maskUnits="userSpaceOnUse" x="11" y="32" width="12" height="20">
<path d="M11.6328 32.4219H22.684V51.9849H11.6328V32.4219Z" fill="white"/>
</mask>
<g mask="url(#mask0)">
<path fill-rule="evenodd" clip-rule="evenodd" d="M13.8546 34.4175C13.851 34.5181 13.8468 34.8277 13.8212 35.2931C13.7951 35.7616 13.7589 36.3752 13.6428 37.0797C13.4252 38.4954 12.8931 40.2645 12.3974 42.0557C12.2758 42.5047 12.1569 42.9546 12.0515 43.403C11.9437 43.8517 11.8464 44.2889 11.7765 44.7448C11.6302 45.6429 11.601 46.5079 11.6646 47.2521C11.7343 47.9963 11.8853 48.6148 12.0202 49.0423C12.0898 49.2552 12.1587 49.4207 12.1999 49.5343C12.2406 49.6483 12.273 49.7065 12.273 49.7065C12.5868 50.3418 12.9893 50.9556 13.6397 51.4782C13.821 51.6041 13.9952 51.7296 14.2415 51.8278C14.3461 51.8809 14.4969 51.9198 14.6443 51.9498C14.8039 51.9885 14.9067 51.9783 15.0306 51.9825C15.2719 51.9966 15.508 51.9485 15.742 51.8934C15.8597 51.8675 15.9604 51.8155 16.0694 51.7742C16.1774 51.7306 16.2841 51.6841 16.372 51.6248C17.1322 51.1696 17.5757 50.5607 17.9385 49.9832C18.2993 49.3971 18.5745 48.8032 18.8205 48.2126C18.9434 47.9174 19.0566 47.6229 19.1657 47.332C19.2679 47.0634 19.396 46.6976 19.4784 46.395C19.6558 45.7678 19.7917 45.1627 19.9232 44.5556C20.1812 43.3455 20.4019 42.1425 20.6278 40.9499C20.7204 40.2177 20.8044 39.4685 20.9252 38.7894C21.0517 38.0995 21.2328 37.3817 21.4175 36.6723C21.7971 35.2482 22.2144 33.8282 22.684 32.4219C22.2006 33.5591 21.7571 34.7062 21.3335 35.8656C20.92 37.0269 20.499 38.1871 20.242 39.3721C19.9783 40.5739 19.7466 41.7955 19.4904 43.01C19.3631 43.6181 19.2314 44.2256 19.0871 44.8318C18.9408 45.4378 18.7913 46.0427 18.5818 46.6427C18.2492 47.585 17.8934 48.5199 17.391 49.4021C17.1369 49.8393 16.8455 50.2662 16.4584 50.6221C16.0798 50.976 15.5555 51.2477 14.9983 51.2258C14.8655 51.2354 14.7108 51.1962 14.578 51.1523L14.3871 51.0669C14.325 51.0363 14.272 50.9955 14.2144 50.96C13.9866 50.8137 13.8014 50.6266 13.6261 50.4345C13.2844 50.0415 13.0287 49.5913 12.8244 49.1243C12.4128 48.187 12.2469 47.1666 12.2281 46.1585C12.208 45.1454 12.3726 44.1436 12.567 43.1707C12.7624 42.1934 12.9951 41.2276 13.2131 40.2624C13.4315 39.2974 13.6329 38.3308 13.756 37.3569C13.8825 36.3867 13.8911 35.4005 13.8546 34.4175Z" fill="black"/>
</g>
<path fill-rule="evenodd" clip-rule="evenodd" d="M12.041 21.554C12.3055 20.4994 12.6204 19.9791 13.0012 18.96C13.3863 17.9436 13.8342 16.9438 14.4339 16.0308C14.7329 15.5748 15.0822 15.1478 15.4957 14.7859C15.9102 14.4308 16.4166 14.1496 16.9761 14.0942C17.5362 14.0357 18.0864 14.2233 18.5708 14.4752C19.0597 14.7324 19.4969 15.076 19.8887 15.4596C19.5071 15.059 19.079 14.6945 18.5875 14.4159C18.4699 14.3378 18.3384 14.2826 18.2085 14.2244C18.143 14.1962 18.0791 14.1635 18.0123 14.1389L17.8052 14.0773C17.5336 13.9806 17.2299 13.9605 16.9367 13.9787C16.3399 14.0226 15.7915 14.3132 15.3491 14.6762C14.9022 15.0431 14.5299 15.4807 14.2057 15.9419C13.9709 16.2869 13.7601 16.6449 13.5679 17.0104C13.4025 17.3237 13.247 17.6412 13.1035 17.9634C12.7897 18.6603 12.5192 19.3734 12.2763 20.0941C12.0903 20.7787 11.9322 20.946 11.7939 21.6387L12.041 21.554Z" fill="black"/>
<path fill-rule="evenodd" clip-rule="evenodd" d="M13.4649 32.0254C13.305 31.2271 13.0478 30.4521 12.7339 29.7035C12.5664 29.3021 12.3797 28.9099 12.202 28.5124C12.0296 28.1129 11.8634 27.7099 11.7262 27.2963C11.4471 26.4714 11.2647 25.609 11.223 24.735C11.1804 23.8617 11.2691 22.9834 11.4494 22.129C11.7113 22.0294 11.9717 21.9377 12.2302 21.8535C12.0311 22.9066 11.9505 23.9589 12.0935 24.9665C12.2281 25.9757 12.5706 26.9399 13.0308 27.8908C13.0824 28.0219 13.1372 28.1534 13.1954 28.2846L13.3733 28.6951C13.4993 28.9815 13.6211 29.2728 13.7341 29.5712C13.7967 29.7343 13.8567 29.9 13.9144 30.0669C14.5136 27.4588 15.3604 23.8484 15.8889 22.3756C16.1093 21.7626 17.6662 18.4056 17.7729 14.1607C17.6904 14.1225 17.607 14.087 17.5224 14.0554L17.2764 13.9885L17.1536 13.9548L17.0312 13.9396C16.9496 13.925 16.8677 13.9226 16.7858 13.9252C16.7036 13.9203 16.6227 13.9323 16.5413 13.9435C16.2165 13.9887 15.9017 14.1244 15.6144 14.3185C15.6144 14.3185 15.3927 14.4465 15.0901 14.7107C14.788 14.9752 14.422 15.3906 14.0962 15.8534C13.4422 16.7811 12.9452 17.8631 12.8873 17.9737C13.1242 17.4027 13.3835 16.8406 13.6861 16.3026C13.9864 15.7641 14.3273 15.2461 14.7384 14.7896C15.1475 14.3373 15.6418 13.9399 16.2254 13.769C16.7359 13.6051 17.2835 13.6919 17.7771 13.8931C17.7773 13.8523 17.7776 13.8113 17.7776 13.7705C17.4061 13.6255 17.0091 13.5395 16.6065 13.5816C16.047 13.637 15.5406 13.9182 15.1261 14.2733C14.7126 14.6352 14.3633 15.0622 14.0644 15.5182C13.4646 16.4312 13.0167 17.4309 12.6314 18.4474C12.2505 19.4665 12.0938 20.495 11.8295 21.5496L11.4241 21.6487C11.5626 20.956 11.7207 20.2661 11.9067 19.5815C12.1496 18.8608 12.4201 18.1477 12.7339 17.4508C12.8774 17.1286 13.0326 16.8111 13.198 16.4978C13.3905 16.1322 13.6013 15.7742 13.8361 15.4293C14.1604 14.9681 14.5324 14.5304 14.9792 14.1636C15.4219 13.8006 15.97 13.51 16.5669 13.4661C16.8601 13.4478 17.1638 13.468 17.4353 13.5646L17.6424 13.6263C17.6886 13.6433 17.7332 13.6647 17.7781 13.6854C17.7768 12.5986 17.6782 11.4606 17.4345 10.2991C16.1881 4.36325 12.7558 0.545036 9.06427 0.075207C3.37705 -0.648873 2.42514 4.0489 1.99132 5.8702C1.55723 7.69203 1.08662 11.7653 1.33419 14.04C1.53558 15.8848 2.82714 22.2614 2.28897 25.3901C1.74949 28.5297 0.295141 34.1151 0.0196631 37.5408C-0.256076 40.9668 2.4074 43.5689 5.54697 43.8224C8.68653 44.0756 10.6532 41.0515 11.3299 39.7794C12.0066 38.5082 12.9165 34.3375 13.3504 32.5156C13.3832 32.3774 13.4221 32.2109 13.4649 32.0254Z" fill="black"/>
<path fill-rule="evenodd" clip-rule="evenodd" d="M22.8831 21.1387C23.2418 22.3344 23.7346 25.9744 23.0949 28.8932C22.9804 29.4161 22.7769 30.3283 22.6486 30.8378C22.5116 31.3701 22.3387 31.8912 22.1185 32.3955C21.8967 32.9084 21.6875 33.4243 21.4822 33.9422C21.0734 34.9777 20.6834 36.0196 20.3266 37.0747C20.1494 37.6031 19.9783 38.1333 19.8351 38.6781C19.694 39.2247 19.5886 39.768 19.479 40.3102C19.6147 39.7719 19.7461 39.2321 19.9123 38.6935C20.0803 38.157 20.276 37.6352 20.4776 37.1155C20.884 36.0771 21.3231 35.053 21.7799 34.0368C22.0087 33.5293 22.2427 33.0229 22.4866 32.5251C22.7383 32.0116 22.8361 31.4945 23.024 30.9578C23.2556 30.2941 23.4333 29.7762 23.6039 28.9016C24.303 25.3099 23.3386 22.2396 22.8831 21.1387Z" fill="black"/>
<mask id="path-9-outside-1" maskUnits="userSpaceOnUse" x="44.2959" y="8.01953" width="155" height="28" fill="black">
<rect fill="white" x="44.2959" y="8.01953" width="155" height="28"/>
<path d="M45.2959 13.4301H60.189V16.6927H49.0721V22.3418H58.8296V25.4231H49.0721V34.9995H45.2959V13.4301Z"/>
<path d="M69.8794 35.4224C68.6307 35.4224 67.513 35.221 66.5261 34.8182C65.5594 34.3953 64.7337 33.8213 64.049 33.0963C63.3844 32.3713 62.8708 31.5053 62.5083 30.4983C62.1659 29.4913 61.9948 28.3836 61.9948 27.1753C61.9948 25.9871 62.1659 24.8894 62.5083 23.8825C62.8708 22.8755 63.3844 22.0095 64.049 21.2845C64.7337 20.5595 65.5594 19.9956 66.5261 19.5928C67.513 19.1698 68.6307 18.9584 69.8794 18.9584C71.128 18.9584 72.2357 19.1698 73.2024 19.5928C74.1892 19.9956 75.0149 20.5595 75.6795 21.2845C76.3643 22.0095 76.8778 22.8755 77.2202 23.8825C77.5827 24.8894 77.764 25.9871 77.764 27.1753C77.764 28.3836 77.5827 29.4913 77.2202 30.4983C76.8778 31.5053 76.3643 32.3713 75.6795 33.0963C75.0149 33.8213 74.1892 34.3953 73.2024 34.8182C72.2357 35.221 71.128 35.4224 69.8794 35.4224ZM69.8794 32.7036C70.6447 32.7036 71.3093 32.5425 71.8732 32.2202C72.4371 31.898 72.9003 31.4751 73.2628 30.9514C73.6253 30.4278 73.8871 29.8438 74.0482 29.1993C74.2295 28.5347 74.3201 27.86 74.3201 27.1753C74.3201 26.5107 74.2295 25.8461 74.0482 25.1815C73.8871 24.5169 73.6253 23.9328 73.2628 23.4293C72.9003 22.9057 72.4371 22.4828 71.8732 22.1605C71.3093 21.8383 70.6447 21.6772 69.8794 21.6772C69.1141 21.6772 68.4495 21.8383 67.8856 22.1605C67.3217 22.4828 66.8584 22.9057 66.4959 23.4293C66.1334 23.9328 65.8615 24.5169 65.6803 25.1815C65.5192 25.8461 65.4386 26.5107 65.4386 27.1753C65.4386 27.86 65.5192 28.5347 65.6803 29.1993C65.8615 29.8438 66.1334 30.4278 66.4959 30.9514C66.8584 31.4751 67.3217 31.898 67.8856 32.2202C68.4495 32.5425 69.1141 32.7036 69.8794 32.7036Z"/>
<path d="M80.627 19.3813H83.8594V22.4022H83.9198C84.0205 21.9793 84.2118 21.5664 84.4938 21.1636C84.7959 20.7609 85.1483 20.3983 85.5511 20.0761C85.974 19.7337 86.4373 19.4619 86.9407 19.2605C87.4442 19.0591 87.9578 18.9584 88.4814 18.9584C88.8842 18.9584 89.1561 18.9684 89.2971 18.9886C89.4582 19.0087 89.6193 19.0289 89.7804 19.049V22.372C89.5387 22.3317 89.287 22.3015 89.0252 22.2814C88.7835 22.2411 88.5418 22.221 88.3002 22.221C87.7161 22.221 87.1623 22.3418 86.6386 22.5835C86.1352 22.805 85.6921 23.1474 85.3094 23.6106C84.9268 24.0537 84.6247 24.6075 84.4032 25.2721C84.1816 25.9367 84.0709 26.702 84.0709 27.568V34.9995H80.627V19.3813Z"/>
<path d="M91.2474 19.3813H94.51V21.5564H94.6007C94.8625 21.1737 95.1444 20.8213 95.4465 20.499C95.7486 20.1768 96.0809 19.9049 96.4434 19.6834C96.8261 19.4619 97.2591 19.2907 97.7424 19.1698C98.2258 19.0289 98.7796 18.9584 99.4039 18.9584C100.35 18.9584 101.227 19.1698 102.032 19.5928C102.858 20.0157 103.442 20.6702 103.784 21.5564C104.368 20.7508 105.043 20.1164 105.808 19.6532C106.574 19.19 107.53 18.9584 108.678 18.9584C110.33 18.9584 111.608 19.3612 112.515 20.1667C113.441 20.9723 113.904 22.3217 113.904 24.2148V34.9995H110.461V25.8763C110.461 25.252 110.44 24.6881 110.4 24.1846C110.36 23.6609 110.239 23.2179 110.038 22.8554C109.856 22.4727 109.574 22.1807 109.192 21.9793C108.809 21.7779 108.285 21.6772 107.621 21.6772C106.453 21.6772 105.607 22.0397 105.083 22.7647C104.56 23.4898 104.298 24.5169 104.298 25.8461V34.9995H100.854V24.97C100.854 23.8825 100.653 23.0668 100.25 22.5231C99.8671 21.9592 99.1522 21.6772 98.1049 21.6772C97.6619 21.6772 97.2289 21.7678 96.8059 21.9491C96.4032 22.1303 96.0406 22.3922 95.7184 22.7345C95.4163 23.0769 95.1646 23.4998 94.9632 24.0033C94.7819 24.5068 94.6913 25.0808 94.6913 25.7252V34.9995H91.2474V19.3813Z"/>
<path d="M116.835 30.2906C117.095 29.9226 117.398 29.7385 117.744 29.7385C118.026 29.7385 118.253 29.8684 118.426 30.1282C118.621 30.3664 118.718 30.7236 118.718 31.1999C118.718 31.8927 118.902 32.553 119.271 33.1809C119.66 33.7871 120.223 34.285 120.959 34.6747C121.717 35.0428 122.605 35.2268 123.622 35.2268C124.878 35.2268 125.82 34.9129 126.447 34.285C127.097 33.6572 127.422 32.8453 127.422 31.8494C127.422 31.1999 127.259 30.6587 126.935 30.2257C126.61 29.771 126.144 29.3597 125.538 28.9916C124.954 28.6236 123.979 28.0715 122.615 27.3354C121.425 26.7075 120.505 26.1771 119.855 25.7441C119.206 25.3111 118.697 24.8348 118.329 24.3152C117.961 23.7956 117.777 23.1786 117.777 22.4642C117.777 21.4033 118.199 20.6023 119.043 20.061C119.888 19.5198 120.959 19.2491 122.258 19.2491C123.579 19.2491 124.683 19.5739 125.571 20.2234C126.48 20.8729 127.292 21.8471 128.006 23.1461C127.941 23.3193 127.833 23.46 127.682 23.5683C127.53 23.6765 127.357 23.7307 127.162 23.7307C126.924 23.7307 126.707 23.6441 126.512 23.4709C126.318 23.276 126.177 23.0054 126.09 22.659C125.874 21.7497 125.473 21.0244 124.889 20.4832C124.326 19.9419 123.46 19.6713 122.291 19.6713C121.295 19.6713 120.505 19.8662 119.92 20.2559C119.357 20.6456 119.076 21.2301 119.076 22.0095C119.076 22.594 119.26 23.1136 119.628 23.5683C120.017 24.0229 120.526 24.4451 121.154 24.8348C121.804 25.2245 122.713 25.7225 123.882 26.3287C125.116 26.9565 126.058 27.4978 126.707 27.9524C127.357 28.3854 127.855 28.8942 128.201 29.4787C128.569 30.0416 128.753 30.7344 128.753 31.5571C128.753 32.7695 128.288 33.7546 127.357 34.5123C126.447 35.2701 125.192 35.649 123.59 35.649C121.771 35.649 120.277 35.1943 119.108 34.285C117.939 33.3541 117.181 32.0226 116.835 30.2906Z"/>
<path d="M131.589 27.4328C131.589 25.7874 131.903 24.3477 132.531 23.1136C133.159 21.8796 134.025 20.927 135.129 20.2559C136.255 19.5847 137.554 19.2491 139.026 19.2491C140.607 19.2491 141.927 19.6821 142.988 20.5481C144.049 21.3925 144.785 22.3992 145.196 23.5683C144.98 23.9147 144.698 24.0879 144.352 24.0879C144.092 24.0879 143.854 23.9905 143.638 23.7956C143.443 23.6008 143.313 23.341 143.248 23.0162C143.096 22.2152 142.717 21.4574 142.111 20.743C141.505 20.0069 140.498 19.6388 139.091 19.6388C137.229 19.6388 135.833 20.3208 134.902 21.6848C133.971 23.0487 133.505 24.9322 133.505 27.3354C133.505 28.721 133.722 30.0092 134.155 31.1999C134.588 32.369 135.248 33.3108 136.136 34.0252C137.024 34.7397 138.117 35.0969 139.416 35.0969C141.061 35.0969 142.371 34.5665 143.345 33.5056C144.32 32.4231 145.077 31.0267 145.619 29.3164H146.008C144.774 33.5381 142.447 35.649 139.026 35.649C137.554 35.649 136.255 35.3134 135.129 34.6422C134.025 33.9711 133.159 33.0185 132.531 31.7845C131.903 30.5288 131.589 29.0782 131.589 27.4328Z"/>
<path d="M159.795 34.9995C159.925 32.9644 159.99 30.9509 159.99 28.9591V24.8348C159.99 23.1461 159.708 21.8796 159.145 21.0353C158.604 20.1909 157.76 19.7687 156.612 19.7687C155.335 19.7687 154.22 20.2017 153.267 21.0677C152.315 21.9337 151.546 22.9621 150.962 24.1528V28.8942C150.962 31.2973 151.027 33.3324 151.157 34.9995H149.078C149.208 33.3324 149.273 31.2973 149.273 28.8942V15.0923C149.273 12.7108 149.208 10.6866 149.078 9.01953H151.157C151.027 10.6866 150.962 12.7108 150.962 15.0923V23.4709C151.503 22.3451 152.304 21.36 153.365 20.5157C154.447 19.6713 155.692 19.2491 157.099 19.2491C158.658 19.2491 159.806 19.7254 160.542 20.678C161.3 21.6306 161.678 23.1353 161.678 25.192V28.9591C161.678 29.8035 161.689 30.6803 161.711 31.5896C161.733 32.4773 161.798 33.6139 161.906 34.9995H159.795Z"/>
<path d="M173.616 35.649C171.97 35.649 170.509 35.3026 169.231 34.6098C167.976 33.8953 167.001 32.9211 166.309 31.687C165.616 30.4313 165.269 29.0133 165.269 27.4328C165.269 25.874 165.616 24.4776 166.309 23.2435C167.001 21.9879 167.976 21.0136 169.231 20.3208C170.509 19.6064 171.97 19.2491 173.616 19.2491C175.239 19.2491 176.679 19.6064 177.935 20.3208C179.212 21.0136 180.197 21.9879 180.89 23.2435C181.604 24.4776 181.962 25.874 181.962 27.4328C181.962 28.9916 181.604 30.3989 180.89 31.6546C180.197 32.9103 179.212 33.8953 177.935 34.6098C176.679 35.3026 175.239 35.649 173.616 35.649ZM173.616 35.2593C175.694 35.2593 177.285 34.5448 178.389 33.1159C179.493 31.6654 180.046 29.771 180.046 27.4328C180.046 25.1163 179.493 23.2435 178.389 21.8147C177.285 20.3641 175.694 19.6388 173.616 19.6388C171.537 19.6388 169.946 20.3641 168.842 21.8147C167.738 23.2435 167.185 25.1163 167.185 27.4328C167.185 29.771 167.738 31.6654 168.842 33.1159C169.946 34.5448 171.537 35.2593 173.616 35.2593ZM169.589 14.0856L171.147 12.5593L172.674 14.0856L171.147 15.6444L169.589 14.0856ZM174.557 14.0856L176.116 12.5593L177.642 14.0856L176.116 15.6444L174.557 14.0856Z"/>
<path d="M196.012 34.9995C196.142 32.9644 196.207 30.9509 196.207 28.9591V24.8348C196.207 23.1461 195.925 21.8796 195.363 21.0353C194.821 20.1909 193.977 19.7687 192.829 19.7687C191.552 19.7687 190.437 20.2017 189.485 21.0677C188.532 21.9337 187.763 22.9621 187.179 24.1528V29.2189C187.179 31.6004 187.244 33.5273 187.374 34.9995H185.295C185.425 33.5273 185.49 31.6004 185.49 29.2189V25.6467C185.49 23.2868 185.425 21.3708 185.295 19.8986H187.374C187.287 20.743 187.222 21.9229 187.179 23.4384C187.742 22.291 188.554 21.3059 189.614 20.4832C190.675 19.6605 191.909 19.2491 193.317 19.2491C194.875 19.2491 196.023 19.7254 196.759 20.678C197.517 21.6306 197.896 23.1353 197.896 25.192V28.9591C197.896 29.8035 197.906 30.6803 197.928 31.5896C197.95 32.4773 198.015 33.6139 198.123 34.9995H196.012Z"/>
</mask>
<path d="M45.2959 13.4301H60.189V16.6927H49.0721V22.3418H58.8296V25.4231H49.0721V34.9995H45.2959V13.4301Z" fill="black"/>
<path d="M69.8794 35.4224C68.6307 35.4224 67.513 35.221 66.5261 34.8182C65.5594 34.3953 64.7337 33.8213 64.049 33.0963C63.3844 32.3713 62.8708 31.5053 62.5083 30.4983C62.1659 29.4913 61.9948 28.3836 61.9948 27.1753C61.9948 25.9871 62.1659 24.8894 62.5083 23.8825C62.8708 22.8755 63.3844 22.0095 64.049 21.2845C64.7337 20.5595 65.5594 19.9956 66.5261 19.5928C67.513 19.1698 68.6307 18.9584 69.8794 18.9584C71.128 18.9584 72.2357 19.1698 73.2024 19.5928C74.1892 19.9956 75.0149 20.5595 75.6795 21.2845C76.3643 22.0095 76.8778 22.8755 77.2202 23.8825C77.5827 24.8894 77.764 25.9871 77.764 27.1753C77.764 28.3836 77.5827 29.4913 77.2202 30.4983C76.8778 31.5053 76.3643 32.3713 75.6795 33.0963C75.0149 33.8213 74.1892 34.3953 73.2024 34.8182C72.2357 35.221 71.128 35.4224 69.8794 35.4224ZM69.8794 32.7036C70.6447 32.7036 71.3093 32.5425 71.8732 32.2202C72.4371 31.898 72.9003 31.4751 73.2628 30.9514C73.6253 30.4278 73.8871 29.8438 74.0482 29.1993C74.2295 28.5347 74.3201 27.86 74.3201 27.1753C74.3201 26.5107 74.2295 25.8461 74.0482 25.1815C73.8871 24.5169 73.6253 23.9328 73.2628 23.4293C72.9003 22.9057 72.4371 22.4828 71.8732 22.1605C71.3093 21.8383 70.6447 21.6772 69.8794 21.6772C69.1141 21.6772 68.4495 21.8383 67.8856 22.1605C67.3217 22.4828 66.8584 22.9057 66.4959 23.4293C66.1334 23.9328 65.8615 24.5169 65.6803 25.1815C65.5192 25.8461 65.4386 26.5107 65.4386 27.1753C65.4386 27.86 65.5192 28.5347 65.6803 29.1993C65.8615 29.8438 66.1334 30.4278 66.4959 30.9514C66.8584 31.4751 67.3217 31.898 67.8856 32.2202C68.4495 32.5425 69.1141 32.7036 69.8794 32.7036Z" fill="black"/>
<path d="M80.627 19.3813H83.8594V22.4022H83.9198C84.0205 21.9793 84.2118 21.5664 84.4938 21.1636C84.7959 20.7609 85.1483 20.3983 85.5511 20.0761C85.974 19.7337 86.4373 19.4619 86.9407 19.2605C87.4442 19.0591 87.9578 18.9584 88.4814 18.9584C88.8842 18.9584 89.1561 18.9684 89.2971 18.9886C89.4582 19.0087 89.6193 19.0289 89.7804 19.049V22.372C89.5387 22.3317 89.287 22.3015 89.0252 22.2814C88.7835 22.2411 88.5418 22.221 88.3002 22.221C87.7161 22.221 87.1623 22.3418 86.6386 22.5835C86.1352 22.805 85.6921 23.1474 85.3094 23.6106C84.9268 24.0537 84.6247 24.6075 84.4032 25.2721C84.1816 25.9367 84.0709 26.702 84.0709 27.568V34.9995H80.627V19.3813Z" fill="black"/>
<path d="M91.2474 19.3813H94.51V21.5564H94.6007C94.8625 21.1737 95.1444 20.8213 95.4465 20.499C95.7486 20.1768 96.0809 19.9049 96.4434 19.6834C96.8261 19.4619 97.2591 19.2907 97.7424 19.1698C98.2258 19.0289 98.7796 18.9584 99.4039 18.9584C100.35 18.9584 101.227 19.1698 102.032 19.5928C102.858 20.0157 103.442 20.6702 103.784 21.5564C104.368 20.7508 105.043 20.1164 105.808 19.6532C106.574 19.19 107.53 18.9584 108.678 18.9584C110.33 18.9584 111.608 19.3612 112.515 20.1667C113.441 20.9723 113.904 22.3217 113.904 24.2148V34.9995H110.461V25.8763C110.461 25.252 110.44 24.6881 110.4 24.1846C110.36 23.6609 110.239 23.2179 110.038 22.8554C109.856 22.4727 109.574 22.1807 109.192 21.9793C108.809 21.7779 108.285 21.6772 107.621 21.6772C106.453 21.6772 105.607 22.0397 105.083 22.7647C104.56 23.4898 104.298 24.5169 104.298 25.8461V34.9995H100.854V24.97C100.854 23.8825 100.653 23.0668 100.25 22.5231C99.8671 21.9592 99.1522 21.6772 98.1049 21.6772C97.6619 21.6772 97.2289 21.7678 96.8059 21.9491C96.4032 22.1303 96.0406 22.3922 95.7184 22.7345C95.4163 23.0769 95.1646 23.4998 94.9632 24.0033C94.7819 24.5068 94.6913 25.0808 94.6913 25.7252V34.9995H91.2474V19.3813Z" fill="black"/>
<path d="M116.835 30.2906C117.095 29.9226 117.398 29.7385 117.744 29.7385C118.026 29.7385 118.253 29.8684 118.426 30.1282C118.621 30.3664 118.718 30.7236 118.718 31.1999C118.718 31.8927 118.902 32.553 119.271 33.1809C119.66 33.7871 120.223 34.285 120.959 34.6747C121.717 35.0428 122.605 35.2268 123.622 35.2268C124.878 35.2268 125.82 34.9129 126.447 34.285C127.097 33.6572 127.422 32.8453 127.422 31.8494C127.422 31.1999 127.259 30.6587 126.935 30.2257C126.61 29.771 126.144 29.3597 125.538 28.9916C124.954 28.6236 123.979 28.0715 122.615 27.3354C121.425 26.7075 120.505 26.1771 119.855 25.7441C119.206 25.3111 118.697 24.8348 118.329 24.3152C117.961 23.7956 117.777 23.1786 117.777 22.4642C117.777 21.4033 118.199 20.6023 119.043 20.061C119.888 19.5198 120.959 19.2491 122.258 19.2491C123.579 19.2491 124.683 19.5739 125.571 20.2234C126.48 20.8729 127.292 21.8471 128.006 23.1461C127.941 23.3193 127.833 23.46 127.682 23.5683C127.53 23.6765 127.357 23.7307 127.162 23.7307C126.924 23.7307 126.707 23.6441 126.512 23.4709C126.318 23.276 126.177 23.0054 126.09 22.659C125.874 21.7497 125.473 21.0244 124.889 20.4832C124.326 19.9419 123.46 19.6713 122.291 19.6713C121.295 19.6713 120.505 19.8662 119.92 20.2559C119.357 20.6456 119.076 21.2301 119.076 22.0095C119.076 22.594 119.26 23.1136 119.628 23.5683C120.017 24.0229 120.526 24.4451 121.154 24.8348C121.804 25.2245 122.713 25.7225 123.882 26.3287C125.116 26.9565 126.058 27.4978 126.707 27.9524C127.357 28.3854 127.855 28.8942 128.201 29.4787C128.569 30.0416 128.753 30.7344 128.753 31.5571C128.753 32.7695 128.288 33.7546 127.357 34.5123C126.447 35.2701 125.192 35.649 123.59 35.649C121.771 35.649 120.277 35.1943 119.108 34.285C117.939 33.3541 117.181 32.0226 116.835 30.2906Z" fill="black"/>
<path d="M131.589 27.4328C131.589 25.7874 131.903 24.3477 132.531 23.1136C133.159 21.8796 134.025 20.927 135.129 20.2559C136.255 19.5847 137.554 19.2491 139.026 19.2491C140.607 19.2491 141.927 19.6821 142.988 20.5481C144.049 21.3925 144.785 22.3992 145.196 23.5683C144.98 23.9147 144.698 24.0879 144.352 24.0879C144.092 24.0879 143.854 23.9905 143.638 23.7956C143.443 23.6008 143.313 23.341 143.248 23.0162C143.096 22.2152 142.717 21.4574 142.111 20.743C141.505 20.0069 140.498 19.6388 139.091 19.6388C137.229 19.6388 135.833 20.3208 134.902 21.6848C133.971 23.0487 133.505 24.9322 133.505 27.3354C133.505 28.721 133.722 30.0092 134.155 31.1999C134.588 32.369 135.248 33.3108 136.136 34.0252C137.024 34.7397 138.117 35.0969 139.416 35.0969C141.061 35.0969 142.371 34.5665 143.345 33.5056C144.32 32.4231 145.077 31.0267 145.619 29.3164H146.008C144.774 33.5381 142.447 35.649 139.026 35.649C137.554 35.649 136.255 35.3134 135.129 34.6422C134.025 33.9711 133.159 33.0185 132.531 31.7845C131.903 30.5288 131.589 29.0782 131.589 27.4328Z" fill="black"/>
<path d="M159.795 34.9995C159.925 32.9644 159.99 30.9509 159.99 28.9591V24.8348C159.99 23.1461 159.708 21.8796 159.145 21.0353C158.604 20.1909 157.76 19.7687 156.612 19.7687C155.335 19.7687 154.22 20.2017 153.267 21.0677C152.315 21.9337 151.546 22.9621 150.962 24.1528V28.8942C150.962 31.2973 151.027 33.3324 151.157 34.9995H149.078C149.208 33.3324 149.273 31.2973 149.273 28.8942V15.0923C149.273 12.7108 149.208 10.6866 149.078 9.01953H151.157C151.027 10.6866 150.962 12.7108 150.962 15.0923V23.4709C151.503 22.3451 152.304 21.36 153.365 20.5157C154.447 19.6713 155.692 19.2491 157.099 19.2491C158.658 19.2491 159.806 19.7254 160.542 20.678C161.3 21.6306 161.678 23.1353 161.678 25.192V28.9591C161.678 29.8035 161.689 30.6803 161.711 31.5896C161.733 32.4773 161.798 33.6139 161.906 34.9995H159.795Z" fill="black"/>
<path d="M173.616 35.649C171.97 35.649 170.509 35.3026 169.231 34.6098C167.976 33.8953 167.001 32.9211 166.309 31.687C165.616 30.4313 165.269 29.0133 165.269 27.4328C165.269 25.874 165.616 24.4776 166.309 23.2435C167.001 21.9879 167.976 21.0136 169.231 20.3208C170.509 19.6064 171.97 19.2491 173.616 19.2491C175.239 19.2491 176.679 19.6064 177.935 20.3208C179.212 21.0136 180.197 21.9879 180.89 23.2435C181.604 24.4776 181.962 25.874 181.962 27.4328C181.962 28.9916 181.604 30.3989 180.89 31.6546C180.197 32.9103 179.212 33.8953 177.935 34.6098C176.679 35.3026 175.239 35.649 173.616 35.649ZM173.616 35.2593C175.694 35.2593 177.285 34.5448 178.389 33.1159C179.493 31.6654 180.046 29.771 180.046 27.4328C180.046 25.1163 179.493 23.2435 178.389 21.8147C177.285 20.3641 175.694 19.6388 173.616 19.6388C171.537 19.6388 169.946 20.3641 168.842 21.8147C167.738 23.2435 167.185 25.1163 167.185 27.4328C167.185 29.771 167.738 31.6654 168.842 33.1159C169.946 34.5448 171.537 35.2593 173.616 35.2593ZM169.589 14.0856L171.147 12.5593L172.674 14.0856L171.147 15.6444L169.589 14.0856ZM174.557 14.0856L176.116 12.5593L177.642 14.0856L176.116 15.6444L174.557 14.0856Z" fill="black"/>
<path d="M196.012 34.9995C196.142 32.9644 196.207 30.9509 196.207 28.9591V24.8348C196.207 23.1461 195.925 21.8796 195.363 21.0353C194.821 20.1909 193.977 19.7687 192.829 19.7687C191.552 19.7687 190.437 20.2017 189.485 21.0677C188.532 21.9337 187.763 22.9621 187.179 24.1528V29.2189C187.179 31.6004 187.244 33.5273 187.374 34.9995H185.295C185.425 33.5273 185.49 31.6004 185.49 29.2189V25.6467C185.49 23.2868 185.425 21.3708 185.295 19.8986H187.374C187.287 20.743 187.222 21.9229 187.179 23.4384C187.742 22.291 188.554 21.3059 189.614 20.4832C190.675 19.6605 191.909 19.2491 193.317 19.2491C194.875 19.2491 196.023 19.7254 196.759 20.678C197.517 21.6306 197.896 23.1353 197.896 25.192V28.9591C197.896 29.8035 197.906 30.6803 197.928 31.5896C197.95 32.4773 198.015 33.6139 198.123 34.9995H196.012Z" fill="black"/>
<path d="M45.2959 13.4301H60.189V16.6927H49.0721V22.3418H58.8296V25.4231H49.0721V34.9995H45.2959V13.4301Z" stroke="black" stroke-width="0.443682" mask="url(#path-9-outside-1)"/>
<path d="M69.8794 35.4224C68.6307 35.4224 67.513 35.221 66.5261 34.8182C65.5594 34.3953 64.7337 33.8213 64.049 33.0963C63.3844 32.3713 62.8708 31.5053 62.5083 30.4983C62.1659 29.4913 61.9948 28.3836 61.9948 27.1753C61.9948 25.9871 62.1659 24.8894 62.5083 23.8825C62.8708 22.8755 63.3844 22.0095 64.049 21.2845C64.7337 20.5595 65.5594 19.9956 66.5261 19.5928C67.513 19.1698 68.6307 18.9584 69.8794 18.9584C71.128 18.9584 72.2357 19.1698 73.2024 19.5928C74.1892 19.9956 75.0149 20.5595 75.6795 21.2845C76.3643 22.0095 76.8778 22.8755 77.2202 23.8825C77.5827 24.8894 77.764 25.9871 77.764 27.1753C77.764 28.3836 77.5827 29.4913 77.2202 30.4983C76.8778 31.5053 76.3643 32.3713 75.6795 33.0963C75.0149 33.8213 74.1892 34.3953 73.2024 34.8182C72.2357 35.221 71.128 35.4224 69.8794 35.4224ZM69.8794 32.7036C70.6447 32.7036 71.3093 32.5425 71.8732 32.2202C72.4371 31.898 72.9003 31.4751 73.2628 30.9514C73.6253 30.4278 73.8871 29.8438 74.0482 29.1993C74.2295 28.5347 74.3201 27.86 74.3201 27.1753C74.3201 26.5107 74.2295 25.8461 74.0482 25.1815C73.8871 24.5169 73.6253 23.9328 73.2628 23.4293C72.9003 22.9057 72.4371 22.4828 71.8732 22.1605C71.3093 21.8383 70.6447 21.6772 69.8794 21.6772C69.1141 21.6772 68.4495 21.8383 67.8856 22.1605C67.3217 22.4828 66.8584 22.9057 66.4959 23.4293C66.1334 23.9328 65.8615 24.5169 65.6803 25.1815C65.5192 25.8461 65.4386 26.5107 65.4386 27.1753C65.4386 27.86 65.5192 28.5347 65.6803 29.1993C65.8615 29.8438 66.1334 30.4278 66.4959 30.9514C66.8584 31.4751 67.3217 31.898 67.8856 32.2202C68.4495 32.5425 69.1141 32.7036 69.8794 32.7036Z" stroke="black" stroke-width="0.443682" mask="url(#path-9-outside-1)"/>
<path d="M80.627 19.3813H83.8594V22.4022H83.9198C84.0205 21.9793 84.2118 21.5664 84.4938 21.1636C84.7959 20.7609 85.1483 20.3983 85.5511 20.0761C85.974 19.7337 86.4373 19.4619 86.9407 19.2605C87.4442 19.0591 87.9578 18.9584 88.4814 18.9584C88.8842 18.9584 89.1561 18.9684 89.2971 18.9886C89.4582 19.0087 89.6193 19.0289 89.7804 19.049V22.372C89.5387 22.3317 89.287 22.3015 89.0252 22.2814C88.7835 22.2411 88.5418 22.221 88.3002 22.221C87.7161 22.221 87.1623 22.3418 86.6386 22.5835C86.1352 22.805 85.6921 23.1474 85.3094 23.6106C84.9268 24.0537 84.6247 24.6075 84.4032 25.2721C84.1816 25.9367 84.0709 26.702 84.0709 27.568V34.9995H80.627V19.3813Z" stroke="black" stroke-width="0.443682" mask="url(#path-9-outside-1)"/>
<path d="M91.2474 19.3813H94.51V21.5564H94.6007C94.8625 21.1737 95.1444 20.8213 95.4465 20.499C95.7486 20.1768 96.0809 19.9049 96.4434 19.6834C96.8261 19.4619 97.2591 19.2907 97.7424 19.1698C98.2258 19.0289 98.7796 18.9584 99.4039 18.9584C100.35 18.9584 101.227 19.1698 102.032 19.5928C102.858 20.0157 103.442 20.6702 103.784 21.5564C104.368 20.7508 105.043 20.1164 105.808 19.6532C106.574 19.19 107.53 18.9584 108.678 18.9584C110.33 18.9584 111.608 19.3612 112.515 20.1667C113.441 20.9723 113.904 22.3217 113.904 24.2148V34.9995H110.461V25.8763C110.461 25.252 110.44 24.6881 110.4 24.1846C110.36 23.6609 110.239 23.2179 110.038 22.8554C109.856 22.4727 109.574 22.1807 109.192 21.9793C108.809 21.7779 108.285 21.6772 107.621 21.6772C106.453 21.6772 105.607 22.0397 105.083 22.7647C104.56 23.4898 104.298 24.5169 104.298 25.8461V34.9995H100.854V24.97C100.854 23.8825 100.653 23.0668 100.25 22.5231C99.8671 21.9592 99.1522 21.6772 98.1049 21.6772C97.6619 21.6772 97.2289 21.7678 96.8059 21.9491C96.4032 22.1303 96.0406 22.3922 95.7184 22.7345C95.4163 23.0769 95.1646 23.4998 94.9632 24.0033C94.7819 24.5068 94.6913 25.0808 94.6913 25.7252V34.9995H91.2474V19.3813Z" stroke="black" stroke-width="0.443682" mask="url(#path-9-outside-1)"/>
<path d="M116.835 30.2906C117.095 29.9226 117.398 29.7385 117.744 29.7385C118.026 29.7385 118.253 29.8684 118.426 30.1282C118.621 30.3664 118.718 30.7236 118.718 31.1999C118.718 31.8927 118.902 32.553 119.271 33.1809C119.66 33.7871 120.223 34.285 120.959 34.6747C121.717 35.0428 122.605 35.2268 123.622 35.2268C124.878 35.2268 125.82 34.9129 126.447 34.285C127.097 33.6572 127.422 32.8453 127.422 31.8494C127.422 31.1999 127.259 30.6587 126.935 30.2257C126.61 29.771 126.144 29.3597 125.538 28.9916C124.954 28.6236 123.979 28.0715 122.615 27.3354C121.425 26.7075 120.505 26.1771 119.855 25.7441C119.206 25.3111 118.697 24.8348 118.329 24.3152C117.961 23.7956 117.777 23.1786 117.777 22.4642C117.777 21.4033 118.199 20.6023 119.043 20.061C119.888 19.5198 120.959 19.2491 122.258 19.2491C123.579 19.2491 124.683 19.5739 125.571 20.2234C126.48 20.8729 127.292 21.8471 128.006 23.1461C127.941 23.3193 127.833 23.46 127.682 23.5683C127.53 23.6765 127.357 23.7307 127.162 23.7307C126.924 23.7307 126.707 23.6441 126.512 23.4709C126.318 23.276 126.177 23.0054 126.09 22.659C125.874 21.7497 125.473 21.0244 124.889 20.4832C124.326 19.9419 123.46 19.6713 122.291 19.6713C121.295 19.6713 120.505 19.8662 119.92 20.2559C119.357 20.6456 119.076 21.2301 119.076 22.0095C119.076 22.594 119.26 23.1136 119.628 23.5683C120.017 24.0229 120.526 24.4451 121.154 24.8348C121.804 25.2245 122.713 25.7225 123.882 26.3287C125.116 26.9565 126.058 27.4978 126.707 27.9524C127.357 28.3854 127.855 28.8942 128.201 29.4787C128.569 30.0416 128.753 30.7344 128.753 31.5571C128.753 32.7695 128.288 33.7546 127.357 34.5123C126.447 35.2701 125.192 35.649 123.59 35.649C121.771 35.649 120.277 35.1943 119.108 34.285C117.939 33.3541 117.181 32.0226 116.835 30.2906Z" stroke="black" stroke-width="0.443682" mask="url(#path-9-outside-1)"/>
<path d="M131.589 27.4328C131.589 25.7874 131.903 24.3477 132.531 23.1136C133.159 21.8796 134.025 20.927 135.129 20.2559C136.255 19.5847 137.554 19.2491 139.026 19.2491C140.607 19.2491 141.927 19.6821 142.988 20.5481C144.049 21.3925 144.785 22.3992 145.196 23.5683C144.98 23.9147 144.698 24.0879 144.352 24.0879C144.092 24.0879 143.854 23.9905 143.638 23.7956C143.443 23.6008 143.313 23.341 143.248 23.0162C143.096 22.2152 142.717 21.4574 142.111 20.743C141.505 20.0069 140.498 19.6388 139.091 19.6388C137.229 19.6388 135.833 20.3208 134.902 21.6848C133.971 23.0487 133.505 24.9322 133.505 27.3354C133.505 28.721 133.722 30.0092 134.155 31.1999C134.588 32.369 135.248 33.3108 136.136 34.0252C137.024 34.7397 138.117 35.0969 139.416 35.0969C141.061 35.0969 142.371 34.5665 143.345 33.5056C144.32 32.4231 145.077 31.0267 145.619 29.3164H146.008C144.774 33.5381 142.447 35.649 139.026 35.649C137.554 35.649 136.255 35.3134 135.129 34.6422C134.025 33.9711 133.159 33.0185 132.531 31.7845C131.903 30.5288 131.589 29.0782 131.589 27.4328Z" stroke="black" stroke-width="0.443682" mask="url(#path-9-outside-1)"/>
<path d="M159.795 34.9995C159.925 32.9644 159.99 30.9509 159.99 28.9591V24.8348C159.99 23.1461 159.708 21.8796 159.145 21.0353C158.604 20.1909 157.76 19.7687 156.612 19.7687C155.335 19.7687 154.22 20.2017 153.267 21.0677C152.315 21.9337 151.546 22.9621 150.962 24.1528V28.8942C150.962 31.2973 151.027 33.3324 151.157 34.9995H149.078C149.208 33.3324 149.273 31.2973 149.273 28.8942V15.0923C149.273 12.7108 149.208 10.6866 149.078 9.01953H151.157C151.027 10.6866 150.962 12.7108 150.962 15.0923V23.4709C151.503 22.3451 152.304 21.36 153.365 20.5157C154.447 19.6713 155.692 19.2491 157.099 19.2491C158.658 19.2491 159.806 19.7254 160.542 20.678C161.3 21.6306 161.678 23.1353 161.678 25.192V28.9591C161.678 29.8035 161.689 30.6803 161.711 31.5896C161.733 32.4773 161.798 33.6139 161.906 34.9995H159.795Z" stroke="black" stroke-width="0.443682" mask="url(#path-9-outside-1)"/>
<path d="M173.616 35.649C171.97 35.649 170.509 35.3026 169.231 34.6098C167.976 33.8953 167.001 32.9211 166.309 31.687C165.616 30.4313 165.269 29.0133 165.269 27.4328C165.269 25.874 165.616 24.4776 166.309 23.2435C167.001 21.9879 167.976 21.0136 169.231 20.3208C170.509 19.6064 171.97 19.2491 173.616 19.2491C175.239 19.2491 176.679 19.6064 177.935 20.3208C179.212 21.0136 180.197 21.9879 180.89 23.2435C181.604 24.4776 181.962 25.874 181.962 27.4328C181.962 28.9916 181.604 30.3989 180.89 31.6546C180.197 32.9103 179.212 33.8953 177.935 34.6098C176.679 35.3026 175.239 35.649 173.616 35.649ZM173.616 35.2593C175.694 35.2593 177.285 34.5448 178.389 33.1159C179.493 31.6654 180.046 29.771 180.046 27.4328C180.046 25.1163 179.493 23.2435 178.389 21.8147C177.285 20.3641 175.694 19.6388 173.616 19.6388C171.537 19.6388 169.946 20.3641 168.842 21.8147C167.738 23.2435 167.185 25.1163 167.185 27.4328C167.185 29.771 167.738 31.6654 168.842 33.1159C169.946 34.5448 171.537 35.2593 173.616 35.2593ZM169.589 14.0856L171.147 12.5593L172.674 14.0856L171.147 15.6444L169.589 14.0856ZM174.557 14.0856L176.116 12.5593L177.642 14.0856L176.116 15.6444L174.557 14.0856Z" stroke="black" stroke-width="0.443682" mask="url(#path-9-outside-1)"/>
<path d="M196.012 34.9995C196.142 32.9644 196.207 30.9509 196.207 28.9591V24.8348C196.207 23.1461 195.925 21.8796 195.363 21.0353C194.821 20.1909 193.977 19.7687 192.829 19.7687C191.552 19.7687 190.437 20.2017 189.485 21.0677C188.532 21.9337 187.763 22.9621 187.179 24.1528V29.2189C187.179 31.6004 187.244 33.5273 187.374 34.9995H185.295C185.425 33.5273 185.49 31.6004 185.49 29.2189V25.6467C185.49 23.2868 185.425 21.3708 185.295 19.8986H187.374C187.287 20.743 187.222 21.9229 187.179 23.4384C187.742 22.291 188.554 21.3059 189.614 20.4832C190.675 19.6605 191.909 19.2491 193.317 19.2491C194.875 19.2491 196.023 19.7254 196.759 20.678C197.517 21.6306 197.896 23.1353 197.896 25.192V28.9591C197.896 29.8035 197.906 30.6803 197.928 31.5896C197.95 32.4773 198.015 33.6139 198.123 34.9995H196.012Z" stroke="black" stroke-width="0.443682" mask="url(#path-9-outside-1)"/>
</svg>
