<svg fill="none" xmlns="http://www.w3.org/2000/svg" viewBox="0 0 988 182"><path d="M.158 29.156v145.843h19.405v-66.793H86.56V91.865H19.563V45.497h76.394V29.156H.157zM127.254 122.3c0-6.4.817-12.052 2.451-16.954 1.77-5.039 4.153-9.26 7.149-12.664 2.996-3.405 6.468-5.992 10.417-7.762 4.086-1.77 8.375-2.656 12.869-2.656s8.715.885 12.664 2.656c4.085 1.77 7.626 4.357 10.622 7.762 2.996 3.404 5.311 7.625 6.945 12.664 1.77 4.902 2.655 10.554 2.655 16.954s-.885 12.119-2.655 17.158c-1.634 4.902-3.949 9.055-6.945 12.46a30.95 30.95 0 01-10.622 7.558c-3.949 1.77-8.17 2.655-12.664 2.655s-8.783-.885-12.869-2.655c-3.949-1.771-7.421-4.29-10.417-7.558-2.996-3.405-5.379-7.558-7.149-12.46-1.634-5.039-2.451-10.758-2.451-17.158zm-18.384 0c0 7.762 1.089 14.979 3.268 21.652 2.179 6.672 5.447 12.528 9.805 17.566 4.357 4.902 9.736 8.783 16.137 11.643 6.4 2.724 13.753 4.085 22.06 4.085 8.443 0 15.796-1.361 22.06-4.085 6.401-2.86 11.779-6.741 16.137-11.643 4.358-5.038 7.626-10.894 9.805-17.566 2.178-6.673 3.268-13.89 3.268-21.652 0-7.762-1.09-14.979-3.268-21.652-2.179-6.809-5.447-12.664-9.805-17.567-4.358-5.038-9.736-8.987-16.137-11.847-6.264-2.86-13.617-4.29-22.06-4.29-8.307 0-15.66 1.43-22.06 4.29-6.401 2.86-11.78 6.809-16.137 11.847-4.358 4.903-7.626 10.758-9.805 17.567-2.179 6.673-3.268 13.89-3.268 21.652zM231.268 69.396v105.603h17.362v-46.98c0-6.809.681-12.8 2.043-17.975 1.362-5.311 3.54-9.805 6.536-13.481 2.996-3.677 6.945-6.469 11.848-8.375 4.902-1.907 10.825-2.86 17.77-2.86V66.945c-9.396-.273-17.158 1.634-23.286 5.719-6.127 4.085-11.302 10.417-15.523 18.996h-.409V69.396h-16.341zM299.902 69.396v105.603h17.362v-65.772c0-2.043.477-4.562 1.43-7.558 1.089-3.132 2.723-6.128 4.902-8.987 2.315-2.86 5.243-5.311 8.784-7.354 3.676-2.042 8.034-3.064 13.072-3.064 3.949 0 7.15.613 9.601 1.839 2.587 1.09 4.63 2.723 6.128 4.902 1.497 2.043 2.519 4.494 3.064 7.353.68 2.86 1.021 5.992 1.021 9.396v69.245h17.362v-65.772c0-8.171 2.451-14.707 7.354-19.61 4.902-4.901 11.643-7.353 20.222-7.353 4.221 0 7.625.613 10.213 1.839 2.723 1.225 4.834 2.927 6.332 5.106 1.498 2.043 2.519 4.494 3.064 7.354.544 2.86.817 5.923.817 9.191v69.245h17.362V97.584c0-5.447-.885-10.077-2.655-13.89-1.634-3.949-4.017-7.149-7.149-9.6-2.996-2.451-6.673-4.222-11.031-5.311-4.221-1.226-8.987-1.838-14.298-1.838-6.945 0-13.345 1.566-19.201 4.698-5.719 3.132-10.349 7.557-13.89 13.277-2.178-6.537-5.923-11.167-11.234-13.89-5.311-2.724-11.234-4.085-17.771-4.085-14.843 0-26.214 5.991-34.112 17.975h-.408V69.396h-16.341zM469.934 143.94c1.464-1.464 2.855-2.196 4.172-2.196 1.318 0 2.343.659 3.075 1.977.731 1.317 1.024 3.293.878 5.928-.439 4.831.732 9.516 3.513 14.054 2.782 4.391 6.88 8.051 12.297 10.979 5.416 2.781 11.857 4.172 19.323 4.172 8.93 0 15.664-2.196 20.202-6.588 4.538-4.538 6.807-10.32 6.807-17.347 0-4.538-1.171-8.344-3.514-11.418-2.196-3.221-5.27-6.075-9.222-8.564-3.953-2.488-10.54-6.221-19.763-11.198-11.564-6.149-19.689-11.419-24.373-15.81-4.538-4.392-6.807-9.882-6.807-16.469 0-6.587 2.488-11.565 7.466-14.931 4.977-3.514 11.491-5.27 19.542-5.27 8.198 0 15.005 2.122 20.422 6.367 5.416 4.246 10.539 10.833 15.37 19.763 0 1.025-.366 1.83-1.098 2.415-.732.586-1.61.879-2.635.879-1.171 0-2.269-.513-3.293-1.538-1.025-1.024-1.83-2.561-2.416-4.61-3.22-14.054-12.004-21.08-26.35-21.08-7.026 0-12.589 1.39-16.688 4.171-3.952 2.782-5.929 6.954-5.929 12.517 0 4.098 1.391 7.831 4.172 11.198 2.782 3.367 6.222 6.368 10.321 9.003 4.245 2.635 10.54 6.148 18.884 10.54 7.612 4.099 13.468 7.685 17.567 10.76 4.245 2.927 7.392 6.221 9.442 9.881 2.195 3.659 3.293 8.124 3.293 13.394 0 7.612-2.781 13.907-8.344 18.884-5.563 4.831-13.248 7.247-23.056 7.247-11.711 0-21.299-3.148-28.765-9.442-7.466-6.442-12.297-15.664-14.493-27.668zM564.338 126.154c0-10.833 1.903-20.348 5.709-28.546 3.952-8.344 9.442-14.785 16.468-19.323 7.173-4.684 15.444-7.026 24.813-7.026 9.808 0 18.079 2.854 24.813 8.563 6.734 5.563 11.491 12.15 14.273 19.763-.586 1.61-1.83 2.415-3.733 2.415-1.318 0-2.562-.439-3.733-1.317-1.025-1.025-1.684-2.343-1.976-3.953-.879-5.124-3.514-10.247-7.905-15.37-4.392-5.27-11.638-7.906-21.739-7.906-13.175 0-23.202 4.758-30.083 14.273-6.88 9.515-10.32 22.324-10.32 38.427 0 9.222 1.537 17.859 4.611 25.911 3.074 8.051 7.612 14.565 13.614 19.543 6.149 4.83 13.614 7.246 22.398 7.246 11.711 0 20.714-3.66 27.008-10.979 6.295-7.32 11.419-16.835 15.371-28.546h2.196c-8.344 27.814-23.203 41.721-44.575 41.721-9.516 0-17.86-2.269-25.033-6.807-7.026-4.685-12.516-11.126-16.468-19.324-3.806-8.344-5.709-17.932-5.709-28.765zM748.358 176.658c.732-13.614 1.098-26.789 1.098-39.525v-26.569c0-12.443-2.05-21.739-6.149-27.887-4.099-6.149-10.32-9.223-18.664-9.223-9.223 0-17.201 3.075-23.935 9.223-6.734 6.148-12.077 13.101-16.029 20.86v33.596c0 15.664.366 28.839 1.098 39.525h-7.686c.732-10.686 1.098-23.861 1.098-39.525V40.517c0-15.664-.366-28.839-1.098-39.525h7.686c-.732 10.686-1.098 23.861-1.098 39.525v59.287c3.513-7.32 8.856-13.907 16.029-19.762 7.32-5.856 15.518-8.784 24.594-8.784 10.247 0 17.712 3.221 22.397 9.662 4.831 6.295 7.246 16.176 7.246 29.644v26.569c0 12.736.366 25.911 1.098 39.525h-7.685zM832.974 181.05c-10.394 0-19.616-2.416-27.667-7.247-7.905-4.83-14.054-11.418-18.445-19.762-4.392-8.344-6.588-17.64-6.588-27.887s2.196-19.543 6.588-27.887c4.391-8.344 10.54-14.931 18.445-19.762 8.051-4.831 17.273-7.246 27.667-7.246 10.394 0 19.543 2.415 27.448 7.246 8.051 4.83 14.273 11.418 18.664 19.762 4.392 8.344 6.588 17.64 6.588 27.887s-2.196 19.543-6.588 27.887c-4.391 8.344-10.613 14.932-18.664 19.762-7.905 4.831-17.054 7.247-27.448 7.247zm0-2.196c9.954 0 18.372-2.342 25.252-7.027 6.88-4.684 12.077-10.979 15.59-18.884 3.514-7.905 5.27-16.835 5.27-26.789s-1.756-18.884-5.27-26.789c-3.513-7.905-8.71-14.2-15.59-18.884-6.88-4.684-15.298-7.027-25.252-7.027-9.954 0-18.372 2.343-25.252 7.027-6.88 4.684-12.077 10.979-15.59 18.884-3.514 7.905-5.27 16.835-5.27 26.789s1.756 18.884 5.27 26.789c3.513 7.905 8.71 14.2 15.59 18.884 6.88 4.685 15.298 7.027 25.252 7.027zM808.82 36.125l8.783-8.783 8.784 8.783-8.784 8.784-8.783-8.784zm30.742 0l8.783-8.783 8.783 8.783-8.783 8.784-8.783-8.784zM980.163 176.658c.732-13.614 1.098-26.789 1.098-39.525v-26.569c0-12.443-2.05-21.739-6.149-27.887-4.099-6.149-10.32-9.223-18.664-9.223-9.223 0-17.201 3.075-23.935 9.223-6.733 6.148-12.077 13.101-16.029 20.86v35.792c0 15.664.366 28.106 1.098 37.329h-7.686c.732-9.223 1.098-21.665 1.098-37.329v-26.35c0-15.663-.366-28.106-1.098-37.329h7.686c-.439 5.563-.805 13.541-1.098 23.935 3.513-7.32 8.856-13.834 16.029-19.543 7.32-5.856 15.518-8.784 24.594-8.784 10.247 0 17.713 3.221 22.397 9.662 4.831 6.295 7.246 16.176 7.246 29.644v26.569c0 12.736.366 25.911 1.098 39.525h-7.685z" fill="#fff"/></svg>