<svg fill="none" xmlns="http://www.w3.org/2000/svg" viewBox="0 0 946 632"><path d="M1 616c17-38.5 37-72.75 60-102.75 23-30.5 45.25-56 66.75-76.5s48-44 79.5-70.5l21-17.25c28.5-23.5 51.25-44 68.25-61.5s31-37 42-58.5 16.5-45.5 16.5-72c0-44.5-14.25-80.25-42.75-107.25C284.25 22.25 246.5 8.5 199 8.5c-31 0-58.75 5.75-83.25 17.25-24 11.5-42.75 27-56.25 46.5C46.5 91.75 40 113 40 136c0 26 8 46.75 24 62.25s36.5 28.25 61.5 38.25l-15 30C53.5 234.5 25 191 25 136c0-24 7.25-46.25 21.75-66.75s34.75-37 60.75-49.5C134 7.25 164.5 1 199 1c35.5 0 66.75 6.75 93.75 20.25 27 13 47.75 31.25 62.25 54.75 15 23.5 22.5 50.5 22.5 81 0 26-6.25 50.25-18.75 72.75-12 22.5-27.25 43-45.75 61.5-18 18-41.75 39-71.25 63-5 4.5-10.5 9-16.5 13.5C219.75 372.25 214 377 208 382c-27.5 21.5-51 41-70.5 58.5-19 17.5-39 39.25-60 65.25s-40.75 56.5-59.25 91.5h177c79.5 0 147-5 202.5-15L375.25 616H1zm703.975 15c-45.5 0-86.5-13-123-39-36.5-26.5-65.25-63.5-86.25-111-20.5-48-30.75-103-30.75-165 0-61.5 10.5-116 31.5-163.5 21-48 49.5-85.25 85.5-111.75 36.5-26.5 77.5-39.75 123-39.75 45 0 85.75 13.25 122.25 39.75s65.25 63.75 86.25 111.75c21 47.5 31.5 102 31.5 163.5s-10.5 116.25-31.5 164.25-49.75 85.25-86.25 111.75c-36.5 26-77.25 39-122.25 39zm0-7.5c41.5 0 78.75-13.5 111.75-40.5 33.5-27 59.5-63.75 78-110.25 18.5-47 27.75-99.25 27.75-156.75 0-57-9.25-109-27.75-156s-44.5-84-78-111c-33-27-70.25-40.5-111.75-40.5-42 0-79.5 13.5-112.5 40.5s-58.75 64-77.25 111-27.75 99-27.75 156c0 57.5 9.25 109.75 27.75 156.75 18.5 46.5 44.25 83.25 77.25 110.25s70.5 40.5 112.5 40.5z" stroke="#fff"/></svg>